<?xml version="1.0" encoding="UTF-8" standalone="no"?>
<svg xmlns="http://www.w3.org/2000/svg" version="1.2" baseProfile="tiny" viewBox="0.00 0.00 607.00 398.00">
<g>
<path fill="#ffffff" d="
  M 78.53 80.94
  C 78.82 78.99 79.48 75.41 77.65 73.80
  C 77.39 73.57 77.09 73.46 76.74 73.49
  C 75.25 73.58 73.86 73.19 72.49 73.24
  C 65.43 73.50 58.39 73.31 51.36 72.68
  C 51.03 72.65 50.74 72.52 50.49 72.30
  C 47.49 69.62 42.65 65.68 41.85 61.59
  C 40.65 55.51 40.51 47.43 41.27 42.17
  C 42.17 35.89 47.18 28.66 54.27 28.41
  C 70.12 27.86 84.11 27.84 96.24 28.34
  C 100.67 28.52 102.79 31.68 102.84 36.02
  C 102.91 41.36 102.24 48.29 95.27 48.25
  C 88.06 48.21 77.49 47.17 70.70 48.94
  C 70.32 49.04 70.13 49.29 70.13 49.68
  L 70.12 55.58
  C 70.12 56.26 70.67 56.82 71.36 56.83
  C 78.96 56.92 86.64 57.07 94.39 57.30
  C 96.84 57.38 98.60 56.85 99.88 59.37
  C 100.03 59.68 100.25 59.92 100.53 60.10
  C 104.00 62.34 106.16 64.75 107.16 68.94
  C 108.82 75.87 108.83 82.77 107.20 89.66
  C 106.04 94.57 102.79 97.73 98.98 100.68
  C 96.18 102.85 90.64 102.75 87.23 102.70
  C 76.82 102.55 66.42 102.46 56.01 102.43
  C 52.80 102.42 50.26 101.59 48.38 99.92
  C 42.67 94.87 45.07 82.91 53.55 82.24
  C 59.53 81.77 65.52 82.37 71.36 81.95
  C 73.56 81.80 75.77 81.63 77.98 81.45
  C 78.30 81.42 78.48 81.25 78.53 80.94
  Z
  M 55.42 36.42
  C 65.30 34.68 75.79 36.44 86.47 35.72
  C 86.91 35.69 87.14 35.45 87.17 35.01
  L 87.34 32.41
  C 87.36 32.04 87.18 31.86 86.81 31.85
  C 76.96 31.74 67.11 31.71 57.26 31.75
  C 54.31 31.76 49.37 36.92 47.66 39.06
  C 43.63 44.11 44.51 54.10 45.83 60.21
  C 45.96 60.84 46.52 61.28 47.16 61.29
  C 47.98 61.30 48.54 60.87 48.84 60.00
  C 48.94 59.71 48.99 59.41 48.99 59.10
  C 48.96 52.81 48.72 47.19 50.52 41.07
  C 50.60 40.79 50.75 40.55 50.96 40.36
  L 55.07 36.59
  C 55.17 36.50 55.29 36.45 55.42 36.42
  Z
  M 95.1095 32.8804
  C 95.07 32.32 94.58 31.90 94.0175 31.9379
  L 91.9232 32.0917
  C 91.36 32.13 90.94 32.62 90.9806 33.1836
  L 91.0905 34.6796
  C 91.13 35.24 91.62 35.66 92.1825 35.6221
  L 94.2768 35.4683
  C 94.84 35.43 95.26 34.94 95.2194 34.3764
  L 95.1095 32.8804
  Z"
/>
<path fill="#ffffff" d="
  M 118.52 48.71
  C 114.90 46.64 116.02 37.12 116.97 33.21
  C 117.06 32.86 117.23 32.55 117.49 32.29
  L 120.91 28.87
  C 121.06 28.72 121.25 28.63 121.46 28.61
  C 125.89 28.18 129.23 27.97 131.50 27.98
  C 147.91 28.03 164.33 28.11 180.75 28.22
  C 182.20 28.23 182.88 28.92 182.81 30.29
  C 182.78 30.74 182.99 31.01 183.43 31.11
  L 185.94 31.65
  C 186.39 31.74 186.60 32.02 186.58 32.47
  L 185.96 48.12
  C 185.94 48.55 185.61 48.91 185.18 48.97
  C 183.92 49.14 183.28 49.88 183.26 51.20
  C 183.25 51.65 182.90 52.02 182.45 52.04
  L 167.97 52.70
  C 166.73 52.76 166.10 53.41 166.07 54.64
  C 165.74 67.49 165.47 80.69 165.25 94.25
  C 165.22 96.06 164.72 97.73 163.75 99.27
  C 160.47 104.44 146.26 103.18 141.81 101.67
  C 137.10 100.08 137.26 87.67 137.30 83.57
  C 137.40 73.92 137.21 64.73 137.16 55.04
  C 137.15 53.94 136.30 53.03 135.21 52.95
  C 130.96 52.64 127.00 52.34 123.32 52.06
  C 121.19 51.89 119.95 50.73 118.88 49.05
  C 118.80 48.91 118.67 48.79 118.52 48.71
  Z
  M 122.92 35.53
  L 121.38 35.84
  C 121.12 35.89 120.95 36.05 120.88 36.30
  C 120.17 38.79 120.28 41.26 121.21 43.72
  C 121.65 44.88 123.32 44.78 123.62 43.58
  C 124.44 40.34 123.61 35.84 128.01 35.97
  C 136.40 36.20 150.34 36.12 169.83 35.73
  C 170.26 35.72 170.48 35.50 170.48 35.07
  L 170.51 32.73
  C 170.52 32.26 170.28 32.01 169.81 31.99
  C 163.91 31.77 158.01 31.71 152.12 31.81
  C 145.08 31.94 134.53 31.45 125.69 32.35
  C 124.10 32.51 123.52 33.45 123.43 34.94
  C 123.41 35.23 123.20 35.47 122.92 35.53
  Z
  M 178.6634 32.4749
  C 178.65 32.06 178.29 31.73 177.8748 31.7446
  L 174.9170 31.8582
  C 174.50 31.87 174.17 32.23 174.1867 32.6469
  L 174.2766 34.9851
  C 174.29 35.40 174.65 35.73 175.0652 35.7154
  L 178.0230 35.6018
  C 178.44 35.59 178.77 35.23 178.7533 34.8131
  L 178.6634 32.4749
  Z"
/>
<path fill="#ffffff" d="
  M 275.01 30.84
  L 274.75 29.40
  C 274.58 28.48 274.97 28.02 275.90 28.02
  C 292.61 27.99 309.09 27.99 325.34 28.00
  C 327.75 28.00 329.45 28.33 328.66 31.24
  C 328.56 31.60 328.86 31.94 329.23 31.89
  C 331.65 31.56 332.94 32.51 333.11 34.72
  C 333.13 35.06 333.37 35.35 333.69 35.45
  L 336.19 36.18
  C 336.52 36.27 336.69 36.49 336.70 36.84
  C 336.84 42.81 337.04 48.40 336.84 54.65
  C 336.45 66.81 337.43 77.58 335.93 90.89
  C 335.44 95.29 329.74 101.20 325.45 102.09
  C 323.48 102.50 321.89 102.70 320.68 102.69
  C 305.63 102.61 290.67 102.37 275.80 101.96
  C 274.85 101.94 274.01 101.31 273.72 100.40
  C 273.40 99.43 272.74 98.77 271.75 98.43
  C 271.32 98.29 271.04 97.89 271.03 97.44
  L 270.63 32.32
  C 270.62 31.95 270.81 31.76 271.18 31.76
  L 274.27 31.73
  C 274.74 31.73 275.09 31.30 275.01 30.84
  Z
  M 316.2452 32.4840
  C 316.24 32.05 315.89 31.70 315.4525 31.6968
  L 279.2327 31.8232
  C 278.80 31.82 278.44 32.18 278.4454 32.6160
  L 278.4548 35.2960
  C 278.46 35.73 278.81 36.08 279.2475 36.0832
  L 315.4673 35.9568
  C 315.90 35.96 316.26 35.60 316.2546 35.1640
  L 316.2452 32.4840
  Z
  M 324.7411 32.6663
  C 324.70 32.09 324.20 31.67 323.6244 31.7092
  L 321.1118 31.9025
  C 320.54 31.95 320.11 32.45 320.1547 33.0192
  L 320.2989 34.8937
  C 320.34 35.47 320.84 35.89 321.4156 35.8508
  L 323.9282 35.6575
  C 324.50 35.61 324.93 35.11 324.8853 34.5408
  L 324.7411 32.6663
  Z
  M 278.9334 36.1438
  C 278.93 36.00 278.82 35.88 278.6738 35.8834
  L 274.8338 35.8767
  C 274.69 35.88 274.57 35.99 274.5734 36.1362
  L 274.4866 85.8162
  C 274.49 85.96 274.60 86.08 274.7462 86.0766
  L 278.5862 86.0833
  C 278.73 86.08 278.85 85.97 278.8466 85.8238
  L 278.9334 36.1438
  Z
  M 308.2528 49.3232
  C 308.26 48.82 307.85 48.40 307.3376 48.3983
  L 300.4177 48.3621
  C 299.91 48.36 299.50 48.77 299.4929 49.2773
  L 299.3272 80.9168
  C 299.32 81.42 299.73 81.84 300.2424 81.8417
  L 307.1623 81.8779
  C 307.67 81.88 308.08 81.47 308.0871 80.9627
  L 308.2528 49.3232
  Z
  M 278.6364 91.1225
  C 278.63 90.49 278.12 89.98 277.4924 89.9865
  L 275.4524 89.9936
  C 274.82 90.00 274.31 90.51 274.3164 91.1375
  L 274.3236 93.1975
  C 274.33 93.83 274.84 94.34 275.4676 94.3335
  L 277.5076 94.3264
  C 278.14 94.32 278.65 93.81 278.6436 93.1825
  L 278.6364 91.1225
  Z"
/>
<path fill="#ffffff" d="
  M 374.36 80.09
  C 374.35 81.08 374.85 81.59 375.84 81.61
  L 406.67 82.21
  C 407.25 82.22 407.80 82.44 408.23 82.83
  C 409.69 84.16 410.58 86.07 410.90 88.56
  C 412.13 98.14 410.35 102.64 400.06 102.61
  C 383.57 102.57 366.92 102.34 350.13 101.93
  C 349.57 101.92 349.13 101.44 349.16 100.88
  C 349.18 100.49 349.30 100.24 349.51 100.15
  C 349.84 100.01 349.82 99.54 349.49 99.41
  L 347.02 98.46
  C 346.43 98.24 346.04 97.68 346.03 97.05
  C 345.58 75.61 345.66 54.36 345.81 32.49
  C 345.82 32.00 346.06 31.73 346.55 31.68
  L 349.33 31.39
  C 349.65 31.35 349.87 31.05 349.81 30.73
  L 349.52 29.27
  C 349.43 28.80 349.62 28.55 350.09 28.52
  C 364.92 27.58 379.67 28.31 394.52 28.17
  C 397.71 28.14 402.38 27.62 404.79 30.03
  C 408.98 34.23 407.14 42.26 404.74 46.85
  C 404.58 47.15 404.33 47.33 403.99 47.39
  C 395.16 48.95 385.35 48.30 376.10 48.26
  C 375.01 48.25 374.45 48.80 374.43 49.90
  L 374.34 56.12
  C 374.33 56.50 374.65 56.80 375.03 56.77
  C 376.58 56.65 377.94 57.11 379.34 57.04
  C 385.20 56.77 391.04 56.91 396.86 57.44
  C 402.07 57.91 404.10 63.03 402.59 67.62
  C 401.96 69.54 400.35 70.52 399.05 72.08
  C 398.84 72.34 398.57 72.51 398.24 72.58
  C 391.67 74.19 382.72 73.24 375.80 73.26
  C 375.02 73.27 374.40 73.90 374.39 74.68
  L 374.36 80.09
  Z
  M 391.4715 33.0432
  C 391.47 32.36 390.92 31.80 390.2337 31.8011
  L 354.6138 31.7389
  C 353.93 31.74 353.37 32.29 353.3716 32.9768
  L 353.3685 34.7768
  C 353.37 35.46 353.92 36.02 354.6063 36.0189
  L 390.2262 36.0811
  C 390.91 36.08 391.47 35.53 391.4684 34.8432
  L 391.4715 33.0432
  Z
  M 399.4206 33.0065
  C 399.43 32.63 399.13 32.32 398.7562 32.3113
  L 396.0369 32.2496
  C 395.66 32.24 395.35 32.54 395.3416 32.9140
  L 395.2994 34.7735
  C 395.29 35.15 395.59 35.46 395.9638 35.4687
  L 398.6831 35.5304
  C 399.06 35.54 399.37 35.24 399.3784 34.8660
  L 399.4206 33.0065
  Z
  M 354.0022 36.8939
  C 354.00 36.32 353.54 35.85 352.9641 35.8521
  L 350.5841 35.8480
  C 350.01 35.85 349.54 36.31 349.5422 36.8861
  L 349.4578 85.2861
  C 349.46 85.86 349.92 86.33 350.4959 86.3279
  L 352.8759 86.3320
  C 353.45 86.33 353.92 85.87 353.9178 85.2939
  L 354.0022 36.8939
  Z
  M 353.7057 91.2165
  C 353.67 90.48 353.04 89.91 352.2974 89.9484
  L 350.5997 90.0374
  C 349.86 90.08 349.29 90.71 349.3317 91.4457
  L 349.4143 93.0235
  C 349.45 93.76 350.08 94.33 350.8226 94.2916
  L 352.5203 94.2026
  C 353.26 94.16 353.83 93.53 353.7883 92.7943
  L 353.7057 91.2165
  Z"
/>
<path fill="#ffffff" d="
  M 498.70 48.87
  C 496.85 48.71 495.95 47.59 496.01 45.52
  C 496.11 42.33 496.00 38.03 495.67 32.64
  C 495.65 32.33 495.86 32.04 496.16 31.96
  L 499.42 31.08
  C 499.65 31.02 499.80 30.78 499.75 30.55
  L 499.47 29.29
  C 499.39 28.92 499.66 28.56 500.05 28.54
  C 514.37 27.90 526.18 27.74 535.49 28.05
  C 544.72 28.36 552.64 27.79 561.60 28.43
  C 562.08 28.46 562.47 28.83 562.52 29.31
  C 562.67 30.66 563.41 31.40 564.74 31.55
  C 565.19 31.60 565.42 31.86 565.42 32.31
  L 565.50 46.75
  C 565.50 47.12 565.39 47.44 565.16 47.73
  C 560.35 53.84 554.89 52.65 547.54 52.51
  C 546.26 52.48 545.21 53.53 545.23 54.81
  C 545.37 64.16 544.95 72.76 544.86 83.15
  C 544.81 88.43 545.01 99.27 540.92 101.41
  C 536.71 103.62 527.11 102.52 522.24 101.79
  C 519.56 101.38 518.01 99.88 517.60 97.29
  C 516.85 92.59 516.50 87.87 516.53 83.12
  C 516.60 73.68 516.44 64.20 516.52 54.89
  C 516.53 53.60 515.48 52.54 514.19 52.54
  C 510.01 52.55 505.91 52.38 501.89 52.03
  C 500.12 51.87 499.29 51.36 499.30 49.53
  C 499.30 49.19 499.04 48.90 498.70 48.87
  Z
  M 549.9591 33.3392
  C 549.96 32.44 549.23 31.71 548.3263 31.7121
  L 504.8864 31.7879
  C 503.99 31.79 503.26 32.52 503.2592 33.4208
  L 503.2609 34.3808
  C 503.26 35.28 503.99 36.01 504.8937 36.0079
  L 548.3336 35.9321
  C 549.23 35.93 549.96 35.20 549.9608 34.2992
  L 549.9591 33.3392
  Z
  M 558.0409 33.9545
  C 558.13 32.92 557.18 31.99 555.9171 31.8774
  C 554.65 31.76 553.55 32.51 553.4591 33.5455
  C 553.37 34.58 554.32 35.51 555.5829 35.6226
  C 556.85 35.74 557.95 34.99 558.0409 33.9545
  Z
  M 502.80 35.74
  L 500.36 35.78
  C 499.88 35.78 499.50 36.18 499.50 36.66
  L 499.55 39.95
  C 499.58 42.35 500.33 44.28 501.21 44.27
  L 502.19 44.25
  C 503.07 44.24 503.76 42.29 503.73 39.89
  L 503.68 36.60
  C 503.68 36.12 503.28 35.74 502.80 35.74
  Z"
/>
<path fill="#ffffff" d="
  M 237.25 29.99
  L 237.25 29.09
  C 237.25 28.69 237.45 28.48 237.84 28.47
  C 243.56 28.22 249.26 28.16 254.94 28.27
  C 256.30 28.30 257.00 28.33 257.03 28.34
  C 257.65 28.58 258.02 29.29 258.14 30.47
  C 258.23 31.32 258.70 31.75 259.55 31.75
  L 261.06 31.75
  C 261.47 31.75 261.68 31.96 261.69 32.37
  C 262.14 51.58 261.96 70.79 261.15 89.99
  C 260.97 94.35 257.26 97.95 253.97 100.32
  C 248.42 104.32 238.76 102.48 232.54 102.63
  C 228.81 102.72 225.08 102.77 221.35 102.76
  C 216.62 102.75 211.17 101.84 206.01 101.71
  C 205.66 101.70 205.34 101.59 205.06 101.37
  L 198.94 96.57
  C 198.70 96.38 198.52 96.12 198.43 95.83
  C 198.10 94.76 197.54 93.80 196.76 92.96
  C 196.53 92.71 196.41 92.42 196.40 92.08
  L 195.72 33.30
  C 195.71 33.02 195.81 32.76 195.99 32.55
  C 197.82 30.39 199.71 28.77 202.75 28.55
  C 208.06 28.18 213.37 28.55 218.63 28.19
  C 220.01 28.10 220.76 28.73 220.87 30.10
  C 220.89 30.42 221.03 30.68 221.29 30.87
  C 221.84 31.30 222.46 31.43 223.14 31.28
  C 223.72 31.15 224.01 31.39 224.02 31.98
  L 224.66 81.17
  C 224.67 81.49 224.92 81.74 225.24 81.74
  L 232.37 81.75
  C 232.79 81.75 233.00 81.54 233.01 81.13
  L 233.61 32.56
  C 233.62 32.22 233.82 31.91 234.14 31.78
  L 236.80 30.66
  C 237.10 30.54 237.25 30.32 237.25 29.99
  Z
  M 253.9773 32.9129
  C 253.95 32.21 253.36 31.67 252.6574 31.6949
  L 241.8661 32.1283
  C 241.17 32.16 240.62 32.75 240.6481 33.4482
  L 240.7027 34.8071
  C 240.73 35.51 241.32 36.05 242.0226 36.0251
  L 252.8139 35.5917
  C 253.51 35.56 254.06 34.97 254.0319 34.2718
  L 253.9773 32.9129
  Z
  M 216.4552 33.1368
  C 216.42 32.47 215.86 31.95 215.1876 31.9873
  L 204.3605 32.5169
  C 203.69 32.55 203.18 33.12 203.2110 33.7845
  L 203.2648 34.8832
  C 203.30 35.55 203.86 36.07 204.5324 36.0327
  L 215.3595 35.5031
  C 216.03 35.47 216.54 34.90 216.5090 34.2355
  L 216.4552 33.1368
  Z
  M 241.5833 36.1828
  C 241.58 36.03 241.47 35.91 241.3161 35.9100
  L 237.6963 35.8721
  C 237.55 35.87 237.43 35.99 237.4235 36.1392
  L 237.0367 73.0772
  C 237.04 73.23 237.15 73.35 237.3039 73.3500
  L 240.9237 73.3879
  C 241.07 73.39 241.19 73.27 241.1965 73.1208
  L 241.5833 36.1828
  Z
  M 203.32 36.00
  L 200.96 35.96
  C 200.51 35.95 200.13 36.32 200.12 36.78
  L 199.57 68.19
  C 199.44 75.90 199.80 82.15 200.39 82.16
  L 202.29 82.19
  C 202.87 82.20 203.46 75.97 203.59 68.26
  L 204.14 36.85
  C 204.15 36.39 203.78 36.01 203.32 36.00
  Z
  M 241.25 78.69
  C 241.25 78.18 240.83 77.76 240.32 77.76
  L 237.72 77.76
  C 237.21 77.76 236.79 78.18 236.79 78.69
  L 236.79 80.57
  C 236.79 81.08 237.21 81.50 237.72 81.50
  L 240.32 81.50
  C 240.83 81.50 241.25 81.08 241.25 80.57
  L 241.25 78.69
  Z
  M 202.41 85.98
  L 200.07 86.00
  C 199.61 86.00 199.24 86.38 199.24 86.83
  L 199.24 87.11
  C 199.26 88.85 200.04 90.26 201.00 90.25
  L 201.52 90.25
  C 202.49 90.24 203.25 88.83 203.24 87.09
  L 203.24 86.81
  C 203.24 86.35 202.86 85.98 202.41 85.98
  Z"
/>
<path fill="#ffffff" d="
  M 445.22 101.02
  C 441.09 103.34 421.39 104.79 421.24 96.24
  C 421.05 85.58 420.79 74.92 420.46 64.25
  C 420.44 63.47 420.91 62.41 420.86 61.57
  C 420.30 51.27 420.37 41.75 421.07 33.00
  C 421.21 31.25 422.17 30.40 423.94 30.46
  C 424.24 30.47 424.42 30.32 424.49 30.03
  C 424.72 29.03 425.41 28.53 426.57 28.52
  C 432.12 28.51 437.68 28.42 443.25 28.25
  C 444.79 28.20 445.90 28.87 446.59 30.25
  C 446.73 30.54 446.96 30.78 447.23 30.94
  L 448.27 31.53
  C 448.58 31.71 448.78 31.98 448.87 32.33
  C 449.44 34.66 450.56 39.23 452.18 41.02
  C 452.40 41.27 452.53 41.58 452.54 41.91
  C 452.68 45.08 453.47 49.69 457.27 48.49
  C 457.84 48.31 458.24 47.78 458.26 47.18
  L 458.72 33.91
  C 458.83 30.76 461.45 28.28 464.61 28.35
  C 470.68 28.48 476.71 28.41 482.72 28.14
  C 483.49 28.11 484.05 28.87 483.78 29.60
  L 483.49 30.41
  C 483.34 30.82 483.48 31.02 483.92 31.01
  L 485.52 30.97
  C 485.91 30.96 486.12 31.15 486.14 31.54
  C 487.06 48.66 487.08 69.31 486.19 93.49
  C 485.86 102.59 481.03 101.91 474.07 103.15
  C 470.92 103.70 467.06 103.13 462.49 101.44
  C 462.20 101.33 461.98 101.15 461.81 100.90
  L 459.35 97.22
  C 459.30 97.15 459.27 97.08 459.26 97.00
  C 458.30 91.68 456.12 87.15 454.67 82.06
  C 454.23 80.55 452.96 77.55 450.97 77.63
  C 449.57 77.69 449.14 78.73 449.28 80.03
  C 449.94 86.19 450.34 98.14 445.22 101.02
  Z
  M 428.93 36.96
  C 428.94 36.64 429.18 36.37 429.50 36.34
  L 440.82 35.04
  C 441.15 35.00 441.39 34.72 441.39 34.39
  L 441.34 32.45
  C 441.34 32.09 441.03 31.80 440.67 31.82
  L 429.07 32.40
  C 428.84 32.41 428.63 32.55 428.52 32.76
  L 427.28 35.32
  C 427.23 35.43 427.14 35.52 427.04 35.59
  L 425.47 36.55
  C 425.28 36.67 425.17 36.87 425.17 37.09
  L 424.88 81.11
  C 424.88 81.46 425.17 81.75 425.52 81.75
  L 427.55 81.75
  C 427.90 81.75 428.18 81.47 428.19 81.12
  L 428.93 36.96
  Z
  M 467.07 36.12
  C 470.40 35.57 473.75 35.29 477.13 35.28
  C 478.79 35.28 479.74 34.61 479.35 32.84
  C 479.25 32.39 478.86 32.07 478.40 32.06
  L 466.91 31.98
  C 466.44 31.97 466.15 32.20 466.03 32.65
  L 465.42 35.09
  C 465.35 35.36 465.17 35.50 464.89 35.50
  L 463.06 35.50
  C 462.64 35.50 462.30 35.84 462.31 36.26
  L 462.47 47.87
  C 462.48 48.29 462.69 48.50 463.11 48.50
  L 465.74 48.50
  C 466.07 48.50 466.23 48.34 466.24 48.01
  L 466.56 36.71
  C 466.57 36.37 466.74 36.17 467.07 36.12
  Z
  M 428.57 87.76
  C 428.57 86.59 427.63 85.65 426.46 85.65
  C 425.29 85.65 424.35 86.59 424.35 87.76
  C 424.35 88.93 425.29 89.87 426.46 89.87
  C 427.63 89.87 428.57 88.93 428.57 87.76
  Z"
/>
<path fill="#ffffff" d="
  M 120.80 215.53
  C 121.69 215.73 122.59 215.81 123.50 215.78
  C 132.67 215.47 141.81 215.73 150.92 216.56
  C 160.18 217.39 159.48 236.27 148.70 236.40
  C 131.23 236.60 113.77 236.52 96.32 236.09
  C 95.94 236.08 95.65 235.92 95.46 235.59
  L 94.49 234.01
  C 94.32 233.73 94.09 233.51 93.81 233.34
  C 92.64 232.64 91.99 232.04 91.94 230.54
  C 91.11 209.28 91.54 187.81 91.49 166.52
  C 91.49 166.11 91.79 165.77 92.20 165.72
  L 94.81 165.39
  C 95.06 165.36 95.25 165.15 95.25 164.89
  L 95.25 162.50
  C 95.25 162.10 95.45 161.92 95.85 161.95
  C 98.23 162.17 100.57 161.65 102.71 161.72
  C 114.54 162.10 126.36 162.05 138.19 161.58
  C 144.52 161.32 151.62 161.70 153.06 169.35
  C 154.41 176.47 150.41 182.29 143.03 182.39
  C 135.77 182.48 127.77 181.53 120.71 182.49
  C 120.30 182.54 120.09 182.78 120.09 183.20
  L 120.06 190.14
  C 120.05 190.64 120.30 190.88 120.80 190.85
  C 126.42 190.59 141.71 189.60 146.08 193.08
  C 151.40 197.30 147.99 206.74 141.51 207.02
  C 134.44 207.32 125.01 206.25 120.88 207.49
  C 120.38 207.64 120.13 207.98 120.13 208.50
  L 120.14 214.72
  C 120.14 215.17 120.36 215.44 120.80 215.53
  Z
  M 137.1525 166.7572
  C 137.15 166.12 136.63 165.60 135.9844 165.6053
  L 100.2453 165.8548
  C 99.60 165.86 99.09 166.38 99.0934 167.0229
  L 99.1075 169.0428
  C 99.11 169.68 99.63 170.20 100.2756 170.1947
  L 136.0147 169.9452
  C 136.66 169.94 137.17 169.42 137.1666 168.7771
  L 137.1525 166.7572
  Z
  M 145.3651 166.7027
  C 145.31 166.13 144.81 165.71 144.2367 165.7593
  L 141.5873 165.9957
  C 141.02 166.05 140.59 166.55 140.6438 167.1240
  L 140.7949 168.8173
  C 140.85 169.39 141.35 169.81 141.9233 169.7607
  L 144.5727 169.5243
  C 145.14 169.47 145.57 168.97 145.5162 168.3960
  L 145.3651 166.7027
  Z
  M 95.19 170.32
  L 95.53 219.57
  C 95.53 220.09 95.79 220.35 96.32 220.35
  L 97.79 220.35
  C 98.27 220.35 98.52 220.11 98.54 219.63
  C 99.03 210.28 99.45 200.94 99.81 191.59
  C 100.06 185.13 99.36 177.81 99.53 170.86
  C 99.54 170.39 99.31 170.13 98.85 170.06
  L 95.95 169.66
  C 95.44 169.59 95.19 169.81 95.19 170.32
  Z
  M 95.93 227.32
  C 95.97 227.31 96.01 227.31 96.05 227.32
  L 99.07 228.11
  C 99.21 228.15 99.35 228.02 99.33 227.87
  L 98.71 224.11
  C 98.69 224.00 98.59 223.92 98.48 223.94
  L 95.23 224.40
  C 95.12 224.42 95.04 224.52 95.05 224.63
  L 95.30 227.28
  C 95.32 227.41 95.46 227.50 95.59 227.45
  L 95.93 227.32
  Z"
/>
<path fill="#ffffff" d="
  M 75.32 211.94
  C 78.43 212.28 79.08 214.20 81.43 215.43
  C 81.67 215.56 81.81 215.76 81.84 216.03
  C 82.45 221.10 82.46 226.18 81.89 231.26
  C 81.86 231.56 81.72 231.83 81.50 232.04
  C 79.30 234.11 77.45 236.06 74.21 236.21
  C 58.51 236.94 47.31 236.16 33.64 235.97
  C 33.01 235.96 32.50 235.44 32.50 234.81
  L 32.50 233.20
  C 32.50 232.92 32.28 232.70 32.01 232.70
  L 29.88 232.70
  C 29.43 232.70 29.20 232.47 29.19 232.02
  C 29.06 221.71 28.92 211.40 28.79 201.11
  C 28.77 199.59 29.21 197.82 29.23 196.00
  C 29.33 186.75 29.33 177.50 29.22 168.25
  C 29.21 167.79 29.30 167.27 29.48 166.70
  C 29.59 166.38 29.76 166.11 30.01 165.88
  L 33.78 162.46
  C 33.94 162.32 34.15 162.23 34.36 162.22
  C 38.11 161.95 44.32 161.84 52.99 161.89
  C 58.51 161.93 60.91 163.84 61.07 169.49
  C 61.46 182.74 61.69 195.98 61.78 209.20
  C 61.79 210.51 62.88 211.56 64.19 211.52
  C 67.94 211.40 71.65 211.54 75.32 211.94
  Z
  M 49.4898 167.1245
  C 49.47 166.42 48.88 165.86 48.1702 165.8854
  L 37.6354 166.2164
  C 36.93 166.24 36.37 166.83 36.3963 167.5360
  L 36.4302 168.6155
  C 36.45 169.32 37.04 169.88 37.7498 169.8546
  L 48.2846 169.5236
  C 48.99 169.50 49.55 168.91 49.5237 168.2040
  L 49.4898 167.1245
  Z
  M 36.82 170.70
  C 36.82 170.28 36.48 169.94 36.06 169.94
  L 33.76 169.94
  C 33.34 169.94 33.00 170.28 33.00 170.70
  L 33.00 215.14
  C 33.00 215.56 33.34 215.90 33.76 215.90
  L 36.06 215.90
  C 36.48 215.90 36.82 215.56 36.82 215.14
  L 36.82 170.70
  Z
  M 36.5854 220.7306
  C 36.55 220.25 36.14 219.88 35.6505 219.9092
  L 33.3353 220.0590
  C 32.85 220.09 32.48 220.51 32.5139 220.9939
  L 32.6546 223.1694
  C 32.69 223.65 33.10 224.02 33.5895 223.9908
  L 35.9047 223.8410
  C 36.39 223.81 36.76 223.39 36.7261 222.9061
  L 36.5854 220.7306
  Z"
/>
<path fill="#ffffff" d="
  M 205.98 232.74
  C 205.18 232.21 204.76 231.54 204.72 230.73
  C 204.31 223.20 203.94 215.61 203.60 207.94
  C 203.58 207.56 203.27 207.26 202.88 207.26
  L 195.88 207.33
  C 195.51 207.34 195.21 207.64 195.20 208.01
  C 195.11 215.02 194.79 221.99 194.25 228.92
  C 193.92 233.24 192.05 235.75 187.71 236.05
  C 182.52 236.41 167.28 238.28 166.85 229.86
  C 165.98 212.62 166.60 194.64 166.25 177.96
  C 166.09 170.52 170.64 166.91 175.69 162.50
  C 175.94 162.29 176.22 162.18 176.54 162.17
  C 191.11 161.91 205.69 161.78 220.26 161.79
  C 222.78 161.79 224.30 162.77 224.83 164.74
  C 224.92 165.09 225.15 165.30 225.50 165.39
  C 227.27 165.80 228.36 166.89 228.77 168.64
  C 228.86 169.03 229.10 169.28 229.49 169.38
  C 231.44 169.92 232.43 171.44 232.44 173.93
  C 232.53 192.86 233.04 211.88 231.59 230.76
  C 231.56 231.10 231.45 231.41 231.24 231.69
  L 229.14 234.55
  C 228.93 234.83 228.67 235.04 228.34 235.17
  C 223.52 237.21 208.42 238.15 206.52 233.39
  C 206.41 233.12 206.22 232.90 205.98 232.74
  Z
  M 176.13 174.28
  C 177.38 173.54 178.34 172.53 179.02 171.26
  C 179.21 170.90 179.50 170.71 179.91 170.70
  L 211.42 169.53
  C 211.79 169.52 211.98 169.32 211.98 168.95
  L 212.01 166.59
  C 212.01 166.21 211.82 166.01 211.44 166.00
  C 206.73 165.90 196.74 165.82 181.49 165.77
  C 179.26 165.76 178.01 166.76 177.73 168.77
  C 177.68 169.16 177.45 169.39 177.06 169.44
  C 175.11 169.69 173.96 170.82 173.59 172.83
  C 173.53 173.15 173.36 173.39 173.07 173.54
  L 171.09 174.57
  C 170.78 174.74 170.61 174.99 170.59 175.34
  C 170.06 187.53 170.05 199.72 170.56 211.91
  C 170.65 214.02 169.85 215.99 173.13 215.90
  C 173.81 215.88 174.35 215.31 174.31 214.63
  C 173.99 208.56 173.96 202.79 174.23 197.32
  C 174.58 189.96 173.50 182.19 175.54 175.04
  C 175.63 174.71 175.83 174.45 176.13 174.28
  Z
  M 220.2476 166.8650
  C 220.22 166.21 219.67 165.71 219.0232 165.7312
  L 216.9248 165.8118
  C 216.27 165.84 215.77 166.38 215.7909 167.0362
  L 215.8524 168.6350
  C 215.88 169.29 216.43 169.79 217.0768 169.7688
  L 219.1752 169.6882
  C 219.83 169.66 220.33 169.12 220.3091 168.4638
  L 220.2476 166.8650
  Z
  M 203.7051 183.8124
  C 203.71 183.03 203.08 182.40 202.3025 182.3950
  L 196.5826 182.3651
  C 195.80 182.36 195.17 182.99 195.1652 183.7677
  L 195.1349 189.5476
  C 195.13 190.33 195.76 190.96 196.5375 190.9650
  L 202.2574 190.9949
  C 203.04 191.00 203.67 190.37 203.6748 189.5923
  L 203.7051 183.8124
  Z
  M 173.9889 220.6012
  C 173.95 220.07 173.48 219.68 172.9535 219.7231
  L 170.9204 219.8903
  C 170.39 219.93 170.00 220.40 170.0423 220.9257
  L 170.2111 222.9788
  C 170.25 223.51 170.72 223.90 171.2465 223.8569
  L 173.2796 223.6897
  C 173.81 223.65 174.20 223.18 174.1577 222.6543
  L 173.9889 220.6012
  Z"
/>
<path fill="#ffffff" d="
  M 277.79 212.17
  C 275.48 211.52 273.15 211.43 270.81 211.90
  C 270.48 211.97 270.29 212.18 270.26 212.52
  C 269.82 217.33 269.57 222.10 269.51 226.85
  C 269.36 240.37 254.94 236.63 246.57 235.93
  C 245.70 235.86 245.07 235.30 244.68 234.26
  C 244.56 233.96 244.36 233.74 244.07 233.60
  C 242.71 232.92 241.97 231.74 241.84 230.07
  C 241.31 222.89 241.09 215.70 241.17 208.50
  C 241.32 194.39 241.49 180.27 241.66 166.16
  C 241.67 165.73 242.06 165.40 242.49 165.46
  C 244.61 165.78 245.54 164.92 245.28 162.89
  C 245.23 162.49 245.53 162.14 245.93 162.14
  C 262.06 162.07 278.17 161.94 294.24 161.73
  C 295.58 161.71 296.88 161.94 298.13 162.43
  C 298.45 162.55 298.73 162.78 298.90 163.08
  C 299.86 164.75 301.24 165.95 303.04 166.69
  C 303.37 166.83 303.65 167.07 303.83 167.38
  C 304.93 169.26 306.43 170.66 306.92 172.75
  C 308.09 177.65 308.13 182.55 307.06 187.44
  C 306.25 191.10 302.79 193.67 300.06 195.97
  C 299.79 196.20 299.71 196.47 299.82 196.80
  C 301.03 200.51 303.77 200.76 306.35 203.25
  C 306.60 203.49 306.73 203.78 306.76 204.12
  C 307.33 211.48 308.26 224.31 306.83 229.96
  C 305.70 234.41 302.18 236.73 296.26 236.92
  C 291.06 237.09 287.16 236.76 284.55 235.94
  C 276.49 233.40 280.18 218.94 278.34 212.71
  C 278.26 212.43 278.08 212.25 277.79 212.17
  Z
  M 287.1162 167.0399
  C 287.11 166.31 286.52 165.72 285.7893 165.7269
  L 250.2098 165.9132
  C 249.48 165.92 248.89 166.51 248.8968 167.2401
  L 248.9038 168.5801
  C 248.91 169.31 249.50 169.90 250.2307 169.8931
  L 285.8102 169.7068
  C 286.54 169.70 287.13 169.11 287.1232 168.3799
  L 287.1162 167.0399
  Z
  M 295.0677 167.0287
  C 295.09 166.52 294.70 166.09 294.1937 166.0648
  L 292.0363 165.9593
  C 291.53 165.93 291.10 166.33 291.0724 166.8333
  L 290.9923 168.4713
  C 290.97 168.98 291.36 169.41 291.8663 169.4352
  L 294.0237 169.5407
  C 294.53 169.57 294.96 169.17 294.9876 168.6667
  L 295.0677 167.0287
  Z
  M 249.5864 171.0776
  C 249.59 170.41 249.05 169.88 248.3906 169.8734
  L 246.5106 169.8669
  C 245.85 169.86 245.31 170.40 245.3065 171.0627
  L 245.1536 214.8624
  C 245.15 215.53 245.69 216.06 246.3494 216.0666
  L 248.2294 216.0731
  C 248.89 216.08 249.43 215.54 249.4335 214.8773
  L 249.5864 171.0776
  Z
  M 278.7142 184.1975
  C 278.72 183.17 277.88 182.34 276.8575 182.3343
  L 271.9375 182.3257
  C 270.91 182.32 270.08 183.16 270.0742 184.1825
  L 270.0658 189.0225
  C 270.06 190.05 270.90 190.88 271.9225 190.8857
  L 276.8425 190.8943
  C 277.87 190.90 278.70 190.06 278.7058 189.0375
  L 278.7142 184.1975
  Z
  M 249.1101 220.6242
  C 249.03 220.03 248.49 219.61 247.8905 219.6815
  L 245.9464 219.9306
  C 245.35 220.01 244.93 220.55 245.0037 221.1502
  L 245.2299 222.9158
  C 245.31 223.51 245.85 223.93 246.4495 223.8585
  L 248.3936 223.6094
  C 248.99 223.53 249.41 222.99 249.3363 222.3898
  L 249.1101 220.6242
  Z"
/>
<path fill="#ffffff" d="
  M 380.02 164.75
  L 381.01 164.75
  C 381.33 164.75 381.61 164.97 381.67 165.28
  C 381.86 166.15 381.98 167.23 382.03 168.50
  C 382.72 184.95 383.35 211.81 381.63 231.25
  C 381.60 231.58 381.48 231.87 381.26 232.12
  C 380.35 233.18 379.38 234.13 378.35 234.98
  C 373.87 238.65 363.41 237.14 358.33 235.47
  C 358.03 235.37 357.77 235.17 357.61 234.89
  C 356.54 233.10 355.24 231.73 354.57 229.77
  C 353.59 226.92 352.78 224.03 352.13 221.08
  C 351.84 219.73 350.80 219.16 350.71 217.73
  C 350.55 215.21 349.56 213.22 347.74 211.75
  C 346.70 210.91 345.16 211.69 345.21 213.03
  C 345.45 218.72 345.09 224.37 344.12 229.98
  C 343.80 231.81 342.83 232.86 342.10 234.56
  C 341.97 234.85 341.75 235.05 341.45 235.16
  C 336.33 236.96 331.28 236.54 325.99 236.08
  C 324.17 235.92 321.72 236.27 319.48 235.30
  C 319.07 235.12 318.84 234.80 318.81 234.35
  C 318.76 233.83 318.41 233.44 317.75 233.17
  C 317.42 233.04 317.19 232.74 317.16 232.38
  C 316.64 226.33 316.20 220.65 316.45 214.41
  C 317.07 199.09 315.65 184.30 316.87 169.13
  C 317.11 166.15 318.43 164.71 320.33 162.71
  C 320.57 162.46 320.86 162.33 321.20 162.30
  C 328.95 161.70 335.13 161.67 339.74 162.20
  C 340.91 162.33 341.61 163.08 341.85 164.43
  C 341.92 164.81 342.14 165.00 342.53 165.00
  L 343.20 165.00
  C 343.47 165.00 343.65 165.12 343.76 165.36
  C 346.53 171.47 348.11 176.11 348.50 179.27
  C 348.84 182.05 350.29 183.13 352.86 182.51
  C 353.46 182.36 353.89 181.83 353.91 181.22
  L 354.32 166.75
  C 354.33 166.36 354.53 166.11 354.91 166.02
  L 356.53 165.61
  C 357.11 165.46 357.41 165.09 357.43 164.49
  C 357.47 163.56 357.70 162.89 358.12 162.46
  C 358.43 162.15 359.06 161.98 360.03 161.96
  C 365.34 161.86 370.65 161.91 375.97 162.11
  C 377.94 162.18 379.13 162.94 379.53 164.38
  C 379.60 164.63 379.76 164.75 380.02 164.75
  Z
  M 322.90 169.56
  C 321.27 169.14 320.46 169.61 320.46 170.97
  C 320.43 179.67 320.36 188.37 320.27 197.07
  C 320.22 202.25 321.13 208.63 320.97 214.74
  C 320.93 216.29 321.69 217.02 323.26 216.94
  C 323.65 216.92 323.82 216.71 323.79 216.32
  C 323.45 212.23 323.17 208.40 323.58 204.24
  C 324.65 193.40 325.02 182.38 324.68 171.17
  C 324.66 170.53 325.16 169.98 325.80 169.95
  L 336.42 169.38
  C 336.72 169.36 336.97 169.15 337.04 168.86
  L 337.62 166.48
  C 337.73 166.01 337.55 165.77 337.06 165.76
  C 333.41 165.70 329.77 165.78 326.13 165.99
  C 324.12 166.11 323.26 166.98 323.53 169.01
  C 323.59 169.50 323.38 169.69 322.90 169.56
  Z
  M 374.6920 167.2013
  C 374.66 166.28 373.89 165.56 372.9648 165.5906
  L 363.1907 165.9319
  C 362.27 165.96 361.55 166.74 361.5800 167.6592
  L 361.6080 168.4587
  C 361.64 169.38 362.41 170.10 363.3352 170.0694
  L 373.1093 169.7281
  C 374.03 169.70 374.75 168.92 374.7200 168.0008
  L 374.6920 167.2013
  Z
  M 361.8097 171.1592
  C 361.76 170.32 361.04 169.68 360.2022 169.7320
  L 358.8846 169.8103
  C 358.05 169.86 357.41 170.58 357.4574 171.4178
  L 358.0303 181.0608
  C 358.08 181.90 358.80 182.54 359.6378 182.4880
  L 360.9554 182.4097
  C 361.79 182.36 362.43 181.64 362.3826 180.8022
  L 361.8097 171.1592
  Z
  M 321.37 219.45
  C 320.82 220.48 320.61 221.64 320.76 222.95
  C 320.79 223.26 320.96 223.38 321.27 223.29
  L 323.01 222.79
  C 323.29 222.71 323.44 222.53 323.45 222.24
  L 323.59 220.08
  C 323.67 218.82 321.97 218.33 321.37 219.45
  Z"
/>
<path fill="#ffffff" d="
  M 393.59 232.86
  C 392.66 232.75 392.01 232.13 391.63 231.02
  C 391.50 230.66 391.44 230.29 391.44 229.91
  L 391.52 166.81
  C 391.53 166.43 391.74 166.08 392.07 165.90
  L 394.81 164.40
  C 395.10 164.24 395.25 163.99 395.25 163.65
  L 395.25 163.06
  C 395.25 162.64 395.46 162.41 395.87 162.38
  C 403.04 161.72 418.46 160.25 422.06 164.17
  C 422.92 165.11 423.41 166.43 423.52 168.14
  C 424.45 181.94 424.23 195.91 424.47 209.74
  C 424.59 216.59 423.55 223.89 423.37 231.05
  C 423.36 231.38 423.22 231.65 422.97 231.86
  C 422.19 232.51 421.64 233.32 421.33 234.28
  C 421.25 234.54 421.06 234.76 420.81 234.87
  C 413.56 238.13 406.16 236.72 396.32 236.17
  C 395.97 236.15 395.65 235.94 395.50 235.63
  L 394.45 233.47
  C 394.28 233.11 393.99 232.91 393.59 232.86
  Z
  M 400.48 170.07
  L 411.42 169.70
  C 411.81 169.69 412.02 169.48 412.04 169.08
  L 412.14 166.65
  C 412.16 166.16 411.77 165.76 411.29 165.76
  C 407.86 165.74 404.43 165.74 400.99 165.77
  C 399.64 165.78 398.91 166.31 398.80 167.35
  C 398.76 167.73 398.81 168.10 398.94 168.47
  L 399.20 169.18
  C 399.30 169.45 399.11 169.74 398.82 169.74
  L 396.23 169.77
  C 395.69 169.77 395.42 170.04 395.42 170.58
  L 395.19 215.46
  C 395.19 215.81 395.36 215.96 395.70 215.93
  L 398.25 215.69
  C 398.63 215.65 398.83 215.44 398.85 215.06
  C 399.60 201.45 399.80 187.85 399.45 174.26
  C 399.42 173.05 399.54 171.84 399.79 170.65
  C 399.87 170.28 400.10 170.08 400.48 170.07
  Z
  M 398.71 222.93
  L 398.71 220.55
  C 398.71 220.12 398.36 219.77 397.93 219.77
  L 397.67 219.77
  C 396.19 219.77 394.99 220.44 394.99 221.26
  L 394.99 222.22
  C 394.99 223.04 396.19 223.71 397.67 223.71
  L 397.93 223.71
  C 398.36 223.71 398.71 223.36 398.71 222.93
  Z"
/>
<path fill="#ffffff" d="
  M 496.27 164.93
  L 498.12 165.42
  C 498.47 165.52 498.72 165.82 498.73 166.18
  C 499.45 186.09 499.51 205.99 498.91 225.90
  C 498.82 229.02 498.29 231.28 497.34 232.67
  C 493.44 238.35 480.52 237.30 475.78 235.74
  C 469.76 233.76 471.04 222.27 467.58 218.80
  C 467.35 218.57 467.23 218.30 467.23 217.97
  C 467.21 215.90 465.49 209.36 462.47 212.16
  C 462.24 212.37 462.12 212.63 462.09 212.94
  C 461.46 220.24 463.99 234.18 455.22 236.11
  C 450.03 237.25 444.84 237.22 439.65 236.03
  C 431.51 234.16 433.17 222.56 433.20 216.19
  C 433.35 190.36 433.45 173.73 433.50 166.30
  C 433.50 165.96 433.75 165.68 434.09 165.64
  L 435.65 165.46
  C 435.98 165.42 436.27 165.19 436.39 164.88
  L 437.08 163.03
  C 437.22 162.67 437.48 162.45 437.86 162.37
  C 442.33 161.46 446.53 161.97 451.08 161.74
  C 455.50 161.52 460.08 162.83 461.40 167.54
  C 461.81 169.00 462.71 170.37 462.81 171.97
  C 462.83 172.26 462.94 172.54 463.13 172.76
  C 465.45 175.49 465.28 178.69 466.56 181.88
  C 466.71 182.24 466.97 182.43 467.36 182.44
  L 469.63 182.52
  C 470.04 182.54 470.28 182.34 470.35 181.93
  C 471.19 176.79 470.56 172.02 471.09 166.85
  C 471.12 166.56 471.27 166.30 471.50 166.14
  C 472.51 165.43 473.19 164.48 473.53 163.31
  C 473.63 162.94 473.87 162.73 474.24 162.66
  C 481.31 161.44 489.12 161.82 496.27 162.39
  C 496.78 162.43 496.87 163.15 496.38 163.31
  C 495.91 163.47 495.70 163.80 495.75 164.30
  C 495.78 164.63 495.95 164.84 496.27 164.93
  Z
  M 454.1607 167.2700
  C 454.12 166.34 453.33 165.62 452.3929 165.6614
  L 442.1843 166.1429
  C 441.25 166.19 440.53 166.98 440.5758 167.9106
  L 440.5993 168.4100
  C 440.64 169.34 441.43 170.06 442.3671 170.0186
  L 452.5757 169.5371
  C 453.51 169.49 454.23 168.70 454.1842 167.7694
  L 454.1607 167.2700
  Z
  M 491.3419 166.5985
  C 491.33 166.12 490.94 165.74 490.4685 165.7521
  L 479.2499 165.9284
  C 478.77 165.94 478.40 166.33 478.4035 166.8018
  L 478.4381 169.0015
  C 478.45 169.48 478.84 169.86 479.3115 169.8479
  L 490.5301 169.6716
  C 491.01 169.66 491.38 169.27 491.3765 168.7982
  L 491.3419 166.5985
  Z
  M 441.2252 171.4271
  C 441.23 170.57 440.54 169.87 439.6806 169.8717
  L 438.7806 169.8686
  C 437.92 169.87 437.23 170.56 437.2252 171.4131
  L 437.0748 214.4929
  C 437.07 215.35 437.76 216.05 438.6194 216.0483
  L 439.5194 216.0514
  C 440.38 216.05 441.07 215.36 441.0748 214.5069
  L 441.2252 171.4271
  Z
  M 478.8107 170.7464
  C 478.81 170.22 478.38 169.79 477.8490 169.7881
  L 475.6690 169.7919
  C 475.14 169.79 474.71 170.22 474.7107 170.7536
  L 474.7293 181.4336
  C 474.73 181.96 475.16 182.39 475.6910 182.3919
  L 477.8710 182.3881
  C 478.40 182.39 478.83 181.96 478.8293 181.4264
  L 478.8107 170.7464
  Z
  M 438.60 223.75
  C 440.20 223.94 440.91 223.09 440.74 221.21
  C 440.66 220.28 439.79 219.62 438.87 219.81
  L 437.79 220.02
  C 437.31 220.12 437.05 220.42 437.01 220.91
  C 436.91 222.22 437.27 223.34 438.09 224.27
  C 438.11 224.30 438.16 224.29 438.17 224.25
  C 438.20 224.16 438.23 224.06 438.26 223.97
  C 438.31 223.80 438.43 223.73 438.60 223.75
  Z"
/>
<path fill="#ffffff" d="
  M 515.58 164.54
  C 516.66 160.88 525.67 161.61 530.31 161.68
  C 542.40 161.88 553.95 161.76 565.78 161.75
  C 567.39 161.75 568.70 162.17 570.17 162.68
  C 570.47 162.79 570.67 162.99 570.78 163.29
  C 571.15 164.34 571.82 165.12 572.81 165.64
  C 573.08 165.79 573.29 166.04 573.37 166.34
  C 574.24 169.76 574.27 173.15 573.48 176.51
  C 573.07 178.28 571.98 179.06 571.07 180.61
  C 570.90 180.90 570.62 181.10 570.30 181.17
  C 567.98 181.69 565.65 182.00 563.31 182.09
  C 553.93 182.44 546.41 182.54 540.75 182.38
  C 539.58 182.35 538.57 182.50 537.74 182.85
  C 537.37 183.00 537.17 183.28 537.16 183.67
  C 536.91 190.92 536.42 201.87 537.21 214.57
  C 537.24 215.06 537.50 215.35 537.97 215.45
  C 541.40 216.19 544.83 216.21 548.26 215.50
  C 548.59 215.43 548.88 215.21 549.02 214.90
  C 551.54 209.45 546.47 205.48 542.48 202.19
  C 542.23 201.98 542.06 201.72 541.99 201.41
  C 541.52 199.44 541.49 197.42 541.92 195.37
  C 542.01 194.95 542.26 194.70 542.68 194.61
  C 544.01 194.36 545.08 193.65 545.87 192.48
  C 546.04 192.23 546.31 192.08 546.61 192.05
  C 555.06 191.23 563.52 190.83 571.99 190.86
  C 574.02 190.86 576.33 192.05 576.75 194.12
  C 578.38 202.07 579.19 209.69 579.20 216.98
  C 579.21 225.01 575.99 231.07 569.53 235.18
  C 568.32 235.95 566.87 236.36 565.20 236.40
  C 549.55 236.77 533.91 236.62 518.29 235.94
  C 516.61 235.87 515.54 235.36 515.74 233.52
  C 515.78 233.19 515.58 232.88 515.26 232.78
  C 513.25 232.14 511.96 230.79 511.41 228.74
  C 511.30 228.34 511.04 228.12 510.63 228.08
  C 509.16 227.93 508.44 227.14 508.47 225.69
  C 508.67 216.57 508.79 208.73 508.24 198.55
  C 507.77 189.76 507.99 180.97 508.90 172.19
  C 509.04 170.78 509.36 170.20 510.68 169.77
  C 510.99 169.67 511.24 169.43 511.36 169.13
  C 512.07 167.34 513.27 166.05 514.98 165.24
  C 515.27 165.10 515.49 164.85 515.58 164.54
  Z
  M 515.70 216.13
  C 515.54 211.27 515.13 206.46 515.46 201.92
  C 516.24 191.06 516.60 184.08 516.55 180.98
  C 516.46 176.24 518.23 171.33 523.24 170.59
  C 534.31 168.95 546.24 169.71 557.47 169.41
  C 557.93 169.40 558.17 169.16 558.19 168.71
  L 558.28 166.59
  C 558.29 166.16 558.08 165.94 557.65 165.93
  C 546.25 165.76 534.84 165.72 523.43 165.81
  C 521.03 165.83 519.74 166.80 519.56 168.73
  C 519.52 169.12 519.31 169.36 518.92 169.45
  C 517.09 169.86 515.95 170.98 515.52 172.82
  C 515.43 173.21 515.19 173.47 514.81 173.60
  L 513.03 174.21
  C 512.68 174.33 512.49 174.58 512.48 174.95
  C 511.79 188.04 511.97 201.12 513.03 214.18
  C 513.15 215.63 513.72 216.52 514.75 216.85
  C 515.23 217.00 515.72 216.63 515.70 216.13
  Z
  M 566.4573 166.9040
  C 566.45 166.26 565.92 165.74 565.2691 165.7525
  L 563.0094 165.7880
  C 562.36 165.80 561.85 166.33 561.8579 166.9762
  L 561.8827 168.5560
  C 561.89 169.20 562.42 169.72 563.0709 169.7075
  L 565.3306 169.6720
  C 565.98 169.66 566.49 169.13 566.4821 168.4838
  L 566.4573 166.9040
  Z
  M 514.26 219.22
  L 512.16 219.76
  C 511.75 219.87 511.51 220.29 511.61 220.70
  L 511.99 222.15
  C 512.36 223.57 513.42 224.52 514.36 224.27
  L 514.54 224.23
  C 515.48 223.98 515.94 222.64 515.57 221.22
  L 515.19 219.77
  C 515.09 219.36 514.67 219.11 514.26 219.22
  Z"
/>
<path fill="#ffffff" d="
  M 123.67 333.57
  C 122.98 332.87 122.53 332.04 122.30 331.08
  C 121.53 327.80 121.07 324.19 120.91 320.25
  C 120.52 310.88 120.96 303.63 128.84 298.07
  C 130.41 296.96 132.28 296.25 134.43 295.96
  C 145.72 294.41 159.77 295.60 174.93 295.86
  C 176.71 295.89 178.30 296.31 179.69 297.12
  C 180.02 297.32 180.21 297.61 180.24 297.99
  C 180.29 298.52 180.61 298.69 181.21 298.48
  C 181.49 298.39 181.78 298.54 181.87 298.82
  C 183.64 304.53 183.03 309.90 180.04 314.94
  C 179.88 315.21 179.65 315.36 179.34 315.41
  C 170.15 316.80 160.53 316.37 151.31 316.25
  C 150.65 316.24 150.12 316.76 150.11 317.42
  L 150.05 323.82
  C 150.05 324.34 150.31 324.61 150.82 324.62
  L 177.90 325.45
  C 178.29 325.46 178.63 325.59 178.93 325.82
  C 181.98 328.18 186.22 331.62 186.74 335.68
  C 187.59 342.32 188.47 351.68 187.36 357.13
  C 185.94 364.04 179.32 370.78 171.72 370.70
  C 161.45 370.58 151.54 370.99 141.24 370.18
  C 138.73 369.98 135.15 370.42 132.07 370.02
  C 127.03 369.38 125.32 364.09 125.59 359.50
  C 125.93 353.87 128.72 350.63 134.45 350.25
  C 138.40 349.99 142.35 349.96 146.31 350.15
  C 150.42 350.34 154.15 349.77 158.12 349.44
  C 158.48 349.41 158.76 349.10 158.75 348.74
  L 158.74 343.51
  C 158.74 342.51 157.94 341.69 156.94 341.66
  L 131.51 340.94
  C 131.14 340.93 130.78 340.78 130.52 340.51
  L 123.67 333.57
  Z
  M 147.43 303.59
  C 153.80 303.96 160.20 303.91 166.61 303.42
  C 166.97 303.39 167.25 303.09 167.25 302.73
  L 167.25 300.27
  C 167.25 299.98 167.10 299.83 166.80 299.82
  C 157.48 299.66 148.16 299.63 138.84 299.72
  C 133.66 299.77 130.72 303.42 127.78 307.06
  C 123.56 312.28 124.35 322.90 125.70 329.03
  C 125.77 329.33 125.95 329.49 126.26 329.52
  C 128.12 329.65 128.79 328.44 128.84 326.71
  C 129.26 310.87 128.12 302.45 147.43 303.59
  Z
  M 175.2615 300.2051
  C 175.24 299.89 174.96 299.66 174.6494 299.6805
  L 171.3990 299.9307
  C 171.09 299.95 170.85 300.23 170.8744 300.5427
  L 171.0785 303.1949
  C 171.10 303.51 171.38 303.74 171.6906 303.7195
  L 174.9410 303.4693
  C 175.25 303.45 175.49 303.17 175.4656 302.8573
  L 175.2615 300.2051
  Z"
/>
<path fill="#ffffff" d="
  M 409.98 298.85
  C 413.40 300.21 411.77 308.32 411.52 310.58
  C 411.29 312.61 410.20 313.49 409.08 315.06
  C 408.89 315.33 408.59 315.50 408.25 315.53
  C 398.84 316.26 389.42 316.48 380.01 316.17
  C 378.91 316.14 377.44 316.30 375.61 316.65
  C 375.25 316.72 375.07 316.94 375.06 317.31
  L 374.98 348.44
  C 374.98 349.11 375.52 349.66 376.19 349.67
  C 386.42 349.86 396.21 350.11 405.56 350.40
  C 412.38 350.61 412.40 358.61 411.85 363.58
  C 411.61 365.71 410.91 367.27 409.76 368.28
  C 406.12 371.47 394.22 370.65 389.33 370.72
  C 379.68 370.87 368.13 369.94 357.49 369.98
  C 355.29 369.99 354.14 369.13 353.49 367.16
  C 353.38 366.83 353.11 366.57 352.78 366.46
  C 351.06 365.92 349.97 364.79 349.52 363.07
  C 349.43 362.72 349.22 362.46 348.89 362.31
  L 347.56 361.67
  C 347.26 361.53 347.06 361.23 347.04 360.90
  C 346.84 358.13 346.72 353.22 346.69 346.19
  C 346.62 333.97 345.58 321.04 346.69 308.93
  C 347.21 303.21 351.68 300.15 355.50 296.64
  C 355.75 296.41 356.04 296.29 356.37 296.26
  C 365.05 295.40 376.14 295.93 382.32 295.82
  C 391.79 295.65 399.60 295.63 405.76 295.74
  C 407.45 295.77 408.62 296.58 409.29 298.17
  C 409.43 298.50 409.66 298.72 409.98 298.85
  Z
  M 352.30 308.09
  L 351.23 308.49
  C 350.91 308.60 350.72 308.83 350.67 309.16
  C 349.69 315.30 350.20 321.00 350.03 326.44
  C 349.78 334.74 350.32 341.48 350.30 349.08
  C 350.30 349.53 350.52 349.75 350.97 349.75
  L 353.96 349.75
  C 354.27 349.75 354.51 349.49 354.48 349.19
  C 353.71 339.69 354.78 331.43 354.38 320.68
  C 354.24 317.02 354.88 313.44 355.30 309.78
  C 355.32 309.61 355.39 309.45 355.51 309.32
  L 359.57 304.83
  C 359.82 304.56 360.14 304.41 360.51 304.40
  C 372.18 304.10 383.74 303.70 395.41 303.70
  C 395.70 303.70 395.90 303.57 396.02 303.31
  C 396.59 302.07 396.55 301.13 395.90 300.48
  C 395.45 300.03 394.59 299.79 393.33 299.78
  C 379.17 299.60 368.33 299.66 360.81 299.96
  C 359.18 300.02 358.11 300.81 357.62 302.34
  C 357.51 302.69 357.29 302.95 356.96 303.12
  C 355.03 304.12 353.62 305.64 352.74 307.67
  C 352.66 307.87 352.50 308.02 352.30 308.09
  Z
  M 404.6273 300.6912
  C 404.57 300.11 404.04 299.69 403.4623 299.7478
  L 400.9363 300.0133
  C 400.35 300.07 399.93 300.60 399.9929 301.1783
  L 400.1727 302.8888
  C 400.23 303.47 400.76 303.89 401.3377 303.8322
  L 403.8637 303.5667
  C 404.45 303.51 404.87 302.98 404.8071 302.4017
  L 404.6273 300.6912
  Z
  M 354.2824 355.0995
  C 354.31 354.44 353.81 353.89 353.1498 353.8548
  L 351.3518 353.7700
  C 350.70 353.74 350.14 354.25 350.1071 354.9026
  L 350.0176 356.8005
  C 349.99 357.46 350.49 358.01 351.1502 358.0452
  L 352.9482 358.1300
  C 353.60 358.16 354.16 357.65 354.1929 356.9974
  L 354.2824 355.0995
  Z"
/>
<path fill="#ffffff" d="
  M 255.34 299.20
  C 256.50 299.65 257.40 300.10 258.05 301.30
  C 259.60 304.17 261.95 303.11 262.27 307.00
  C 263.10 317.28 262.86 326.94 261.54 335.98
  C 261.50 336.29 261.38 336.58 261.18 336.83
  C 255.85 343.50 252.60 346.11 243.57 345.63
  C 237.70 345.32 231.98 345.38 226.39 345.81
  C 225.81 345.85 225.34 346.32 225.30 346.91
  C 224.93 352.57 224.55 358.21 224.16 363.82
  C 223.98 366.29 222.74 367.39 221.60 369.42
  C 221.44 369.71 221.14 369.91 220.81 369.95
  C 216.07 370.59 203.10 371.63 199.33 368.57
  C 195.63 365.58 196.31 352.17 196.52 345.59
  C 197.02 330.51 195.34 314.63 197.20 300.69
  C 198.00 294.68 208.21 296.00 213.06 295.98
  C 224.53 295.93 235.99 295.84 247.45 295.73
  C 251.13 295.69 253.60 295.11 254.73 298.55
  C 254.83 298.86 255.03 299.08 255.34 299.20
  Z
  M 202.78 303.49
  L 201.57 303.23
  C 201.27 303.16 200.97 303.35 200.90 303.65
  C 200.15 306.81 200.84 310.04 200.75 312.63
  C 200.60 317.08 200.47 321.54 200.34 325.99
  C 200.13 333.23 201.39 341.63 200.70 349.68
  C 200.66 350.11 200.99 350.47 201.42 350.48
  L 203.19 350.51
  C 203.63 350.52 203.83 350.30 203.79 349.86
  C 202.85 340.22 204.42 330.11 204.57 320.93
  C 204.66 315.63 204.73 310.31 204.80 304.97
  C 204.80 304.62 204.98 304.43 205.33 304.38
  C 217.08 302.98 229.75 303.56 241.61 303.82
  C 242.04 303.83 242.26 303.62 242.26 303.18
  L 242.23 300.72
  C 242.23 300.32 242.03 300.11 241.62 300.10
  C 229.31 299.80 217.22 299.79 204.92 300.16
  C 204.46 300.17 204.16 300.40 204.03 300.84
  L 203.31 303.18
  C 203.23 303.45 203.05 303.55 202.78 303.49
  Z
  M 250.1133 300.8614
  C 250.04 300.13 249.38 299.60 248.6495 299.6802
  L 247.1382 299.8417
  C 246.41 299.92 245.88 300.58 245.9570 301.3055
  L 246.0867 302.5186
  C 246.16 303.25 246.82 303.78 247.5505 303.6998
  L 249.0618 303.5383
  C 249.79 303.46 250.32 302.80 250.2430 302.0745
  L 250.1133 300.8614
  Z
  M 233.6343 318.1773
  C 233.64 317.15 232.80 316.32 231.7775 316.3141
  L 227.1175 316.3059
  C 226.09 316.30 225.26 317.14 225.2543 318.1627
  L 225.2457 323.0627
  C 225.24 324.09 226.08 324.92 227.1025 324.9259
  L 231.7625 324.9341
  C 232.79 324.94 233.62 324.10 233.6257 323.0773
  L 233.6343 318.1773
  Z
  M 200.62 357.13
  C 200.83 357.98 201.34 358.23 202.15 357.89
  C 203.44 357.35 203.95 356.28 203.68 354.69
  C 203.50 353.66 202.35 353.13 201.46 353.68
  C 200.47 354.29 200.19 355.44 200.62 357.13
  Z"
/>
<path fill="#ffffff" d="
  M 273.97 367.63
  C 272.86 367.06 272.24 366.29 272.12 365.32
  C 271.61 361.29 271.44 356.60 271.60 351.26
  C 272.00 337.81 271.29 324.94 271.20 311.74
  C 271.14 304.10 275.30 301.43 280.29 296.88
  C 280.54 296.65 280.82 296.52 281.15 296.48
  C 288.93 295.48 298.31 295.92 304.20 295.83
  C 311.65 295.72 319.04 295.70 326.37 295.78
  C 327.02 295.79 327.64 296.04 328.11 296.50
  L 336.38 304.60
  C 336.57 304.79 336.70 305.04 336.74 305.31
  C 338.81 320.15 337.43 338.12 337.18 360.74
  C 337.12 366.36 334.39 369.63 328.98 370.54
  C 323.86 371.41 310.81 372.12 309.68 363.88
  C 308.85 357.87 308.63 351.83 309.02 345.74
  C 309.06 345.15 308.90 343.92 308.55 342.03
  C 308.48 341.66 308.26 341.47 307.88 341.46
  L 301.51 341.35
  C 300.66 341.33 299.97 342.02 299.98 342.87
  C 300.05 347.96 300.69 364.29 297.72 367.78
  C 294.07 372.08 282.61 370.73 277.00 370.00
  C 275.71 369.83 274.88 369.24 274.51 368.24
  C 274.41 367.97 274.23 367.76 273.97 367.63
  Z
  M 307.24 300.00
  C 299.98 299.49 292.72 299.57 285.47 300.25
  C 285.14 300.28 284.84 300.40 284.57 300.60
  C 281.14 303.15 276.35 307.00 275.63 311.47
  C 274.59 317.90 275.34 325.29 275.01 331.39
  C 274.70 337.22 275.65 343.02 275.41 349.00
  C 275.40 349.29 275.51 349.53 275.75 349.72
  C 276.78 350.53 277.73 350.48 278.61 349.57
  C 278.84 349.33 278.97 349.02 278.96 348.69
  C 278.91 344.92 278.98 341.16 279.17 337.41
  C 279.62 328.87 279.30 320.86 279.48 312.53
  C 279.56 308.71 282.15 307.69 284.18 305.12
  C 284.39 304.85 284.66 304.68 284.99 304.61
  C 294.71 302.53 306.07 303.50 316.04 303.50
  C 316.41 303.50 316.64 303.31 316.71 302.94
  L 317.12 300.69
  C 317.19 300.30 317.03 300.09 316.64 300.06
  C 313.50 299.82 310.10 300.21 307.24 300.00
  Z
  M 320.94 301.26
  L 321.32 303.16
  C 321.40 303.55 321.78 303.81 322.17 303.73
  L 322.68 303.62
  C 324.33 303.29 325.54 302.41 325.39 301.65
  L 325.27 301.08
  C 325.12 300.32 323.66 299.98 322.01 300.31
  L 321.50 300.41
  C 321.11 300.49 320.86 300.87 320.94 301.26
  Z
  M 308.7345 317.8270
  C 308.74 317.03 308.10 316.38 307.3072 316.3745
  L 301.7274 316.3258
  C 300.93 316.32 300.28 316.96 300.2749 317.7532
  L 300.2255 323.4130
  C 300.22 324.21 300.86 324.86 301.6528 324.8655
  L 307.2326 324.9142
  C 308.03 324.92 308.68 324.28 308.6851 323.4868
  L 308.7345 317.8270
  Z
  M 278.9008 354.7180
  C 278.83 354.14 278.30 353.73 277.7290 353.8058
  L 275.8238 354.0432
  C 275.25 354.11 274.84 354.64 274.9116 355.2149
  L 275.1192 356.8820
  C 275.19 357.46 275.72 357.87 276.2910 357.7942
  L 278.1962 357.5568
  C 278.77 357.49 279.18 356.96 279.1084 356.3851
  L 278.9008 354.7180
  Z"
/>
<path fill="#ffffff" d="
  M 450.84 349.39
  C 458.91 350.68 469.22 349.88 477.50 349.75
  C 480.40 349.71 483.74 350.53 485.40 353.27
  C 487.77 357.18 488.15 361.17 486.52 365.26
  C 484.56 370.15 477.72 371.05 471.93 370.96
  C 460.08 370.78 445.27 370.43 427.48 369.91
  C 424.44 369.82 422.71 368.26 422.29 365.22
  C 420.59 353.02 421.26 339.32 421.62 326.99
  C 421.85 319.20 421.23 309.72 421.80 301.07
  C 421.93 299.22 422.90 298.35 424.73 298.46
  C 425.07 298.48 425.37 298.23 425.42 297.89
  L 425.55 296.91
  C 425.59 296.64 425.75 296.48 426.02 296.44
  C 429.04 296.03 432.05 295.85 435.06 295.89
  C 448.37 296.09 461.75 295.32 475.01 296.07
  C 487.19 296.76 485.36 316.38 473.80 316.27
  C 466.12 316.20 458.45 316.21 450.80 316.29
  C 450.51 316.30 450.28 316.52 450.27 316.80
  L 449.93 323.20
  C 449.88 324.21 450.36 324.74 451.37 324.79
  C 457.00 325.04 462.88 325.12 469.00 325.02
  C 482.00 324.81 481.49 341.20 470.02 341.15
  C 463.84 341.12 457.54 341.26 451.11 341.56
  C 450.50 341.59 450.02 342.10 450.04 342.72
  L 450.19 348.65
  C 450.20 349.02 450.47 349.33 450.84 349.39
  Z
  M 427.79 354.46
  C 428.43 355.12 429.55 354.65 429.52 353.73
  C 429.07 337.70 430.01 322.04 429.34 305.69
  C 429.31 304.85 429.98 304.15 430.82 304.14
  L 466.36 303.78
  C 466.79 303.78 467.00 303.57 467.00 303.14
  L 467.00 300.45
  C 467.00 300.02 466.79 299.80 466.36 299.80
  C 454.31 299.64 442.17 299.39 430.18 300.47
  C 429.85 300.50 429.56 300.64 429.31 300.87
  L 426.07 303.98
  C 425.85 304.19 425.74 304.44 425.74 304.75
  C 425.89 320.09 425.22 335.44 425.77 350.56
  C 425.82 351.83 426.49 353.13 427.79 354.46
  Z
  M 475.21 300.60
  C 475.21 300.27 474.95 300.01 474.62 300.01
  L 471.58 300.01
  C 471.25 300.01 470.99 300.27 470.99 300.60
  L 470.99 302.90
  C 470.99 303.23 471.25 303.49 471.58 303.49
  L 474.62 303.49
  C 474.95 303.49 475.21 303.23 475.21 302.90
  L 475.21 300.60
  Z
  M 428.2078 362.6998
  C 429.13 362.33 429.44 360.93 428.8913 359.5615
  C 428.35 358.20 427.16 357.39 426.2322 357.7602
  C 425.31 358.13 425.00 359.53 425.5487 360.8985
  C 426.09 362.26 427.28 363.07 428.2078 362.6998
  Z"
/>
</g>
</svg>
