<?xml version="1.0" encoding="UTF-8" standalone="no"?>
<!DOCTYPE svg PUBLIC "-//W3C//DTD SVG 1.1//EN" "http://www.w3.org/Graphics/SVG/1.1/DTD/svg11.dtd">
<svg xmlns="http://www.w3.org/2000/svg" version="1.1" viewBox="0.00 0.00 367.00 137.00">
<g stroke-width="2.00" fill="none" stroke-linecap="butt">
<path stroke="#f28c9b" vector-effect="non-scaling-stroke" d="
  M 106.50 57.00
  A 1.50 1.50 0.0 0 1 105.00 58.50
  L 49.50 58.50
  A 1.50 1.50 0.0 0 1 48.00 57.00
  L 48.00 26.25
  A 1.50 1.49 -0.0 0 1 49.50 24.76
  L 104.28 24.75
  A 2.22 2.22 0.0 0 1 106.50 26.97
  L 106.50 33.50
  Q 106.50 34.00 107.00 34.00
  L 125.22 34.00
  Q 125.82 34.00 125.89 33.40
  C 127.79 16.39 117.59 10.10 102.79 9.89
  Q 61.07 9.29 48.44 9.85
  C 41.11 10.18 29.49 15.30 28.94 23.99
  Q 28.04 38.19 28.77 57.70
  C 29.15 68.03 40.46 73.43 49.50 73.45
  Q 75.48 73.53 101.45 73.48
  Q 108.85 73.46 112.32 72.47
  C 124.20 69.08 126.32 60.80 125.98 49.74
  A 0.50 0.50 0.0 0 0 125.48 49.25
  L 107.00 49.25
  Q 106.50 49.25 106.50 49.75
  L 106.50 57.00"
/>
<path stroke="#82a7be" vector-effect="non-scaling-stroke" d="
  M 152.34 24.95
  L 207.65 24.76
  A 2.17 2.16 86.8 0 1 209.81 26.70
  L 210.07 29.29
  Q 210.15 30.00 210.86 30.00
  L 228.71 30.00
  Q 229.13 30.00 229.19 29.58
  C 230.82 16.70 219.37 9.82 208.00 9.78
  Q 179.78 9.68 151.56 9.81
  Q 141.72 9.85 135.26 17.63
  C 130.64 23.21 130.64 35.95 135.10 41.19
  C 140.41 47.45 146.63 48.97 155.28 49.09
  Q 181.63 49.43 208.66 49.19
  Q 209.75 49.18 209.75 50.27
  L 209.75 56.99
  Q 209.75 58.48 208.26 58.48
  L 153.00 58.51
  A 1.11 1.10 72.3 0 1 152.10 58.04
  Q 151.15 56.64 151.52 54.86
  Q 151.86 53.25 150.21 53.25
  L 132.54 53.25
  Q 132.10 53.25 132.06 53.69
  C 130.74 66.31 141.69 73.51 153.00 73.52
  Q 179.56 73.53 206.12 73.47
  C 214.92 73.45 225.58 70.67 228.67 61.12
  C 229.58 58.33 229.27 54.62 229.24 51.47
  C 229.12 39.65 217.78 33.86 207.24 33.89
  Q 180.04 33.96 153.05 34.04
  A 1.55 1.54 0.2 0 1 151.50 32.49
  L 151.51 25.78
  A 0.83 0.83 0.0 0 1 152.34 24.95"
/>
<path stroke="#82a7be" vector-effect="non-scaling-stroke" d="
  M 242.57 33.58
  C 272.63 35.02 303.68 38.46 331.90 48.54
  Q 332.34 48.69 332.33 48.23
  Q 332.16 37.90 332.25 27.57
  C 332.36 15.54 321.52 9.63 310.75 9.64
  Q 286.05 9.66 261.36 9.79
  Q 251.43 9.84 247.68 11.15
  C 240.30 13.73 235.04 19.46 235.02 27.71
  Q 234.96 50.36 235.02 73.08
  Q 235.02 73.52 235.46 73.52
  L 254.01 73.49
  Q 254.50 73.49 254.50 72.99
  L 254.50 50.03
  Q 254.50 49.25 255.28 49.25
  L 312.37 49.25
  Q 313.00 49.25 313.00 49.87
  L 313.00 73.00
  Q 313.00 73.50 313.50 73.50
  L 331.72 73.50
  Q 332.25 73.50 332.25 72.97
  L 332.25 55.18
  Q 332.25 54.65 331.77 54.44
  Q 317.35 47.94 304.24 44.76
  Q 275.64 37.81 242.85 34.10
  Q 242.73 34.09 242.64 34.02
  Q 242.52 33.93 242.44 33.83
  Q 242.23 33.56 242.57 33.58"
/>
<path stroke="#82a7be" vector-effect="non-scaling-stroke" d="
  M 186.81 121.27
  C 126.95 120.33 69.11 115.08 11.03 100.59
  Q 10.73 100.52 10.87 100.80
  Q 10.93 100.92 11.07 100.96
  Q 46.60 112.54 84.49 118.32
  Q 156.00 129.23 228.31 126.87
  Q 255.62 125.98 288.30 120.81
  C 302.17 118.62 365.02 106.77 356.04 82.16
  Q 355.93 81.85 355.99 81.52
  Q 356.08 81.13 355.80 80.93
  Q 355.50 80.70 355.48 81.08
  C 353.28 118.04 212.47 121.67 186.81 121.27"
/>
<path stroke="#82a7be" vector-effect="non-scaling-stroke" d="
  M 39.77 91.39
  C 44.66 91.80 43.83 99.11 36.71 97.88
  Q 33.55 97.33 32.03 96.67
  Q 31.50 96.43 31.50 97.02
  L 31.50 98.18
  A 0.66 0.65 11.6 0 0 31.90 98.78
  C 36.11 100.50 46.20 101.25 45.79 94.47
  C 45.47 89.34 40.00 89.14 36.27 88.16
  C 33.00 87.31 33.88 83.65 36.73 82.90
  Q 40.42 81.94 44.06 83.78
  A 0.44 0.44 0.0 0 0 44.69 83.30
  L 44.43 81.94
  Q 44.32 81.36 43.74 81.24
  C 38.50 80.17 29.95 79.79 31.78 88.06
  A 1.41 1.38 -78.0 0 0 32.30 88.88
  Q 35.08 91.00 39.77 91.39"
/>
<path stroke="#82a7be" vector-effect="non-scaling-stroke" d="
  M 139.83 90.06
  Q 138.66 89.87 138.30 90.91
  A 0.81 0.81 0.0 0 0 139.07 91.98
  L 142.26 92.01
  Q 143.00 92.01 143.00 92.76
  L 143.00 96.73
  A 0.74 0.74 0.0 0 1 142.48 97.44
  C 138.97 98.58 134.41 98.59 132.09 95.29
  C 130.15 92.54 130.11 85.71 133.33 83.82
  Q 138.81 80.59 144.58 84.69
  A 0.45 0.45 0.0 0 0 145.28 84.23
  L 144.96 82.74
  Q 144.85 82.27 144.41 82.08
  C 137.65 79.11 128.81 80.49 127.92 89.23
  C 126.86 99.57 137.52 102.23 145.11 98.23
  Q 145.43 98.07 145.45 97.71
  L 145.81 91.04
  A 1.05 1.05 0.0 0 0 144.56 89.96
  Q 142.21 90.44 139.83 90.06"
/>
<path stroke="#82a7be" vector-effect="non-scaling-stroke" d="
  M 251.4651 100.1988
  A 9.86 9.55 90.9 0 0 261.1688 90.4900
  A 9.86 9.55 90.9 0 0 251.7749 80.4812
  A 9.86 9.55 90.9 0 0 242.0712 90.1900
  A 9.86 9.55 90.9 0 0 251.4651 100.1988"
/>
<path stroke="#82a7be" vector-effect="non-scaling-stroke" d="
  M 69.25 81.54
  A 0.55 0.55 0.0 0 0 68.70 80.99
  L 67.04 80.99
  A 0.55 0.55 0.0 0 0 66.49 81.54
  L 66.49 99.18
  A 0.55 0.55 0.0 0 0 67.04 99.73
  L 68.70 99.73
  A 0.55 0.55 0.0 0 0 69.25 99.18
  L 69.25 81.54"
/>
<path stroke="#82a7be" vector-effect="non-scaling-stroke" d="
  M 103.75 95.46
  A 0.33 0.33 0.0 0 1 103.13 95.62
  L 95.05 81.46
  A 0.91 0.91 0.0 0 0 94.26 81.00
  L 91.50 81.00
  Q 91.00 81.00 91.00 81.50
  L 91.00 99.09
  Q 91.00 99.62 91.52 99.59
  L 93.24 99.49
  Q 93.75 99.46 93.75 98.94
  L 93.75 84.74
  Q 93.75 83.77 94.22 84.62
  L 102.22 98.84
  Q 102.51 99.35 103.10 99.41
  L 106.00 99.71
  Q 106.50 99.77 106.50 99.26
  L 106.50 81.50
  Q 106.50 81.00 106.00 81.00
  L 104.37 81.00
  Q 103.75 81.00 103.75 81.62
  L 103.75 95.46"
/>
<path stroke="#82a7be" vector-effect="non-scaling-stroke" d="
  M 167.98 99.59
  C 170.73 100.86 171.30 96.98 171.98 95.28
  Q 172.19 94.75 172.77 94.75
  L 180.90 94.76
  A 0.78 0.78 0.0 0 1 181.64 95.29
  C 182.25 97.06 182.72 100.68 185.49 99.67
  Q 186.00 99.49 185.79 98.99
  L 178.75 82.02
  A 2.15 2.15 0.0 0 0 174.78 82.03
  L 167.75 99.01
  Q 167.58 99.40 167.98 99.59"
/>
<path stroke="#82a7be" vector-effect="non-scaling-stroke" d="
  M 210.85 92.01
  C 215.47 92.01 220.57 92.42 220.94 86.50
  C 221.33 80.15 213.03 80.83 208.17 81.07
  Q 207.75 81.09 207.75 81.52
  L 207.75 99.16
  A 0.55 0.55 0.0 0 0 208.41 99.70
  L 209.99 99.39
  Q 210.53 99.29 210.52 98.74
  L 210.44 92.43
  Q 210.43 92.01 210.85 92.01"
/>
<path stroke="#82a7be" vector-effect="non-scaling-stroke" d="
  M 285.61 91.70
  C 291.64 90.96 293.03 94.64 295.09 99.25
  Q 295.31 99.75 295.86 99.75
  L 297.42 99.75
  Q 298.11 99.75 297.85 99.11
  Q 296.04 94.64 292.86 91.10
  Q 292.51 90.71 292.99 90.49
  Q 295.10 89.53 295.42 87.42
  C 296.59 79.85 288.36 80.87 282.95 81.05
  Q 282.52 81.07 282.52 81.50
  L 282.46 99.16
  Q 282.46 99.61 282.91 99.61
  L 284.62 99.61
  Q 285.11 99.61 285.10 99.13
  L 285.04 92.35
  Q 285.03 91.77 285.61 91.70"
/>
<path stroke="#82a7be" vector-effect="non-scaling-stroke" d="
  M 322.58 97.75
  A 0.33 0.33 0.0 0 1 322.25 97.42
  L 322.25 90.83
  A 0.33 0.33 0.0 0 1 322.58 90.50
  L 331.67 90.50
  A 0.33 0.33 0.0 0 0 332.00 90.17
  L 332.00 89.08
  A 0.33 0.33 0.0 0 0 331.67 88.75
  L 322.58 88.75
  A 0.33 0.33 0.0 0 1 322.25 88.42
  L 322.25 83.33
  A 0.33 0.33 0.0 0 1 322.58 83.00
  L 331.79 83.00
  A 0.33 0.33 0.0 0 0 332.10 82.78
  L 332.60 81.44
  A 0.33 0.33 0.0 0 0 332.29 81.00
  L 319.83 81.00
  A 0.33 0.33 0.0 0 0 319.50 81.33
  L 319.50 99.38
  A 0.33 0.33 0.0 0 0 319.84 99.71
  L 332.51 99.41
  A 0.33 0.33 0.0 0 0 332.82 98.98
  L 332.50 97.98
  A 0.33 0.33 0.0 0 0 332.19 97.75
  L 322.58 97.75"
/>
<path stroke="#82a7be" vector-effect="non-scaling-stroke" d="
  M 312.86 25.78
  A 0.93 0.93 0.0 0 0 311.93 24.85
  L 255.45 24.85
  A 0.93 0.93 0.0 0 0 254.52 25.78
  L 254.52 33.10
  A 0.93 0.93 0.0 0 0 255.45 34.03
  L 311.93 34.03
  A 0.93 0.93 0.0 0 0 312.86 33.10
  L 312.86 25.78"
/>
<path stroke="#82a7be" vector-effect="non-scaling-stroke" d="
  M 251.5826 98.1900
  A 7.85 6.64 90.2 0 0 258.2500 90.3632
  A 7.85 6.64 90.2 0 0 251.6374 82.4900
  A 7.85 6.64 90.2 0 0 244.9700 90.3168
  A 7.85 6.64 90.2 0 0 251.5826 98.1900"
/>
<path stroke="#82a7be" vector-effect="non-scaling-stroke" d="
  M 173.27 92.32
  A 0.35 0.35 0.0 0 0 173.59 92.80
  L 180.02 92.79
  A 0.35 0.35 0.0 0 0 180.34 92.31
  L 177.12 84.05
  A 0.35 0.35 0.0 0 0 176.46 84.05
  L 173.27 92.32"
/>
<path stroke="#82a7be" vector-effect="non-scaling-stroke" d="
  M 210.50 83.29
  L 210.50 89.75
  A 0.27 0.27 0.0 0 0 210.77 90.02
  L 214.69 90.02
  A 3.33 3.30 -0.0 0 0 218.02 86.72
  L 218.02 86.32
  A 3.33 3.30 0.0 0 0 214.69 83.02
  L 210.77 83.02
  A 0.27 0.27 0.0 0 0 210.50 83.29"
/>
<path stroke="#82a7be" vector-effect="non-scaling-stroke" d="
  M 285.09 83.47
  L 285.07 89.23
  A 0.50 0.50 0.0 0 0 285.57 89.73
  L 289.13 89.74
  A 3.60 3.22 0.2 0 0 292.74 86.53
  L 292.74 86.21
  A 3.60 3.22 0.2 0 0 289.15 82.98
  L 285.59 82.97
  A 0.50 0.50 0.0 0 0 285.09 83.47"
/>
</g>
<path fill="#ffffff" d="
  M 0.00 0.00
  L 367.00 0.00
  L 367.00 137.00
  L 0.00 137.00
  L 0.00 0.00
  Z
  M 106.50 57.00
  A 1.50 1.50 0.0 0 1 105.00 58.50
  L 49.50 58.50
  A 1.50 1.50 0.0 0 1 48.00 57.00
  L 48.00 26.25
  A 1.50 1.49 -0.0 0 1 49.50 24.76
  L 104.28 24.75
  A 2.22 2.22 0.0 0 1 106.50 26.97
  L 106.50 33.50
  Q 106.50 34.00 107.00 34.00
  L 125.22 34.00
  Q 125.82 34.00 125.89 33.40
  C 127.79 16.39 117.59 10.10 102.79 9.89
  Q 61.07 9.29 48.44 9.85
  C 41.11 10.18 29.49 15.30 28.94 23.99
  Q 28.04 38.19 28.77 57.70
  C 29.15 68.03 40.46 73.43 49.50 73.45
  Q 75.48 73.53 101.45 73.48
  Q 108.85 73.46 112.32 72.47
  C 124.20 69.08 126.32 60.80 125.98 49.74
  A 0.50 0.50 0.0 0 0 125.48 49.25
  L 107.00 49.25
  Q 106.50 49.25 106.50 49.75
  L 106.50 57.00
  Z
  M 152.34 24.95
  L 207.65 24.76
  A 2.17 2.16 86.8 0 1 209.81 26.70
  L 210.07 29.29
  Q 210.15 30.00 210.86 30.00
  L 228.71 30.00
  Q 229.13 30.00 229.19 29.58
  C 230.82 16.70 219.37 9.82 208.00 9.78
  Q 179.78 9.68 151.56 9.81
  Q 141.72 9.85 135.26 17.63
  C 130.64 23.21 130.64 35.95 135.10 41.19
  C 140.41 47.45 146.63 48.97 155.28 49.09
  Q 181.63 49.43 208.66 49.19
  Q 209.75 49.18 209.75 50.27
  L 209.75 56.99
  Q 209.75 58.48 208.26 58.48
  L 153.00 58.51
  A 1.11 1.10 72.3 0 1 152.10 58.04
  Q 151.15 56.64 151.52 54.86
  Q 151.86 53.25 150.21 53.25
  L 132.54 53.25
  Q 132.10 53.25 132.06 53.69
  C 130.74 66.31 141.69 73.51 153.00 73.52
  Q 179.56 73.53 206.12 73.47
  C 214.92 73.45 225.58 70.67 228.67 61.12
  C 229.58 58.33 229.27 54.62 229.24 51.47
  C 229.12 39.65 217.78 33.86 207.24 33.89
  Q 180.04 33.96 153.05 34.04
  A 1.55 1.54 0.2 0 1 151.50 32.49
  L 151.51 25.78
  A 0.83 0.83 0.0 0 1 152.34 24.95
  Z
  M 242.57 33.58
  C 272.63 35.02 303.68 38.46 331.90 48.54
  Q 332.34 48.69 332.33 48.23
  Q 332.16 37.90 332.25 27.57
  C 332.36 15.54 321.52 9.63 310.75 9.64
  Q 286.05 9.66 261.36 9.79
  Q 251.43 9.84 247.68 11.15
  C 240.30 13.73 235.04 19.46 235.02 27.71
  Q 234.96 50.36 235.02 73.08
  Q 235.02 73.52 235.46 73.52
  L 254.01 73.49
  Q 254.50 73.49 254.50 72.99
  L 254.50 50.03
  Q 254.50 49.25 255.28 49.25
  L 312.37 49.25
  Q 313.00 49.25 313.00 49.87
  L 313.00 73.00
  Q 313.00 73.50 313.50 73.50
  L 331.72 73.50
  Q 332.25 73.50 332.25 72.97
  L 332.25 55.18
  Q 332.25 54.65 331.77 54.44
  Q 317.35 47.94 304.24 44.76
  Q 275.64 37.81 242.85 34.10
  Q 242.73 34.09 242.64 34.02
  Q 242.52 33.93 242.44 33.83
  Q 242.23 33.56 242.57 33.58
  Z
  M 186.81 121.27
  C 126.95 120.33 69.11 115.08 11.03 100.59
  Q 10.73 100.52 10.87 100.80
  Q 10.93 100.92 11.07 100.96
  Q 46.60 112.54 84.49 118.32
  Q 156.00 129.23 228.31 126.87
  Q 255.62 125.98 288.30 120.81
  C 302.17 118.62 365.02 106.77 356.04 82.16
  Q 355.93 81.85 355.99 81.52
  Q 356.08 81.13 355.80 80.93
  Q 355.50 80.70 355.48 81.08
  C 353.28 118.04 212.47 121.67 186.81 121.27
  Z
  M 39.77 91.39
  C 44.66 91.80 43.83 99.11 36.71 97.88
  Q 33.55 97.33 32.03 96.67
  Q 31.50 96.43 31.50 97.02
  L 31.50 98.18
  A 0.66 0.65 11.6 0 0 31.90 98.78
  C 36.11 100.50 46.20 101.25 45.79 94.47
  C 45.47 89.34 40.00 89.14 36.27 88.16
  C 33.00 87.31 33.88 83.65 36.73 82.90
  Q 40.42 81.94 44.06 83.78
  A 0.44 0.44 0.0 0 0 44.69 83.30
  L 44.43 81.94
  Q 44.32 81.36 43.74 81.24
  C 38.50 80.17 29.95 79.79 31.78 88.06
  A 1.41 1.38 -78.0 0 0 32.30 88.88
  Q 35.08 91.00 39.77 91.39
  Z
  M 139.83 90.06
  Q 138.66 89.87 138.30 90.91
  A 0.81 0.81 0.0 0 0 139.07 91.98
  L 142.26 92.01
  Q 143.00 92.01 143.00 92.76
  L 143.00 96.73
  A 0.74 0.74 0.0 0 1 142.48 97.44
  C 138.97 98.58 134.41 98.59 132.09 95.29
  C 130.15 92.54 130.11 85.71 133.33 83.82
  Q 138.81 80.59 144.58 84.69
  A 0.45 0.45 0.0 0 0 145.28 84.23
  L 144.96 82.74
  Q 144.85 82.27 144.41 82.08
  C 137.65 79.11 128.81 80.49 127.92 89.23
  C 126.86 99.57 137.52 102.23 145.11 98.23
  Q 145.43 98.07 145.45 97.71
  L 145.81 91.04
  A 1.05 1.05 0.0 0 0 144.56 89.96
  Q 142.21 90.44 139.83 90.06
  Z
  M 251.4651 100.1988
  A 9.86 9.55 90.9 0 0 261.1688 90.4900
  A 9.86 9.55 90.9 0 0 251.7749 80.4812
  A 9.86 9.55 90.9 0 0 242.0712 90.1900
  A 9.86 9.55 90.9 0 0 251.4651 100.1988
  Z
  M 69.25 81.54
  A 0.55 0.55 0.0 0 0 68.70 80.99
  L 67.04 80.99
  A 0.55 0.55 0.0 0 0 66.49 81.54
  L 66.49 99.18
  A 0.55 0.55 0.0 0 0 67.04 99.73
  L 68.70 99.73
  A 0.55 0.55 0.0 0 0 69.25 99.18
  L 69.25 81.54
  Z
  M 103.75 95.46
  A 0.33 0.33 0.0 0 1 103.13 95.62
  L 95.05 81.46
  A 0.91 0.91 0.0 0 0 94.26 81.00
  L 91.50 81.00
  Q 91.00 81.00 91.00 81.50
  L 91.00 99.09
  Q 91.00 99.62 91.52 99.59
  L 93.24 99.49
  Q 93.75 99.46 93.75 98.94
  L 93.75 84.74
  Q 93.75 83.77 94.22 84.62
  L 102.22 98.84
  Q 102.51 99.35 103.10 99.41
  L 106.00 99.71
  Q 106.50 99.77 106.50 99.26
  L 106.50 81.50
  Q 106.50 81.00 106.00 81.00
  L 104.37 81.00
  Q 103.75 81.00 103.75 81.62
  L 103.75 95.46
  Z
  M 167.98 99.59
  C 170.73 100.86 171.30 96.98 171.98 95.28
  Q 172.19 94.75 172.77 94.75
  L 180.90 94.76
  A 0.78 0.78 0.0 0 1 181.64 95.29
  C 182.25 97.06 182.72 100.68 185.49 99.67
  Q 186.00 99.49 185.79 98.99
  L 178.75 82.02
  A 2.15 2.15 0.0 0 0 174.78 82.03
  L 167.75 99.01
  Q 167.58 99.40 167.98 99.59
  Z
  M 210.85 92.01
  C 215.47 92.01 220.57 92.42 220.94 86.50
  C 221.33 80.15 213.03 80.83 208.17 81.07
  Q 207.75 81.09 207.75 81.52
  L 207.75 99.16
  A 0.55 0.55 0.0 0 0 208.41 99.70
  L 209.99 99.39
  Q 210.53 99.29 210.52 98.74
  L 210.44 92.43
  Q 210.43 92.01 210.85 92.01
  Z
  M 285.61 91.70
  C 291.64 90.96 293.03 94.64 295.09 99.25
  Q 295.31 99.75 295.86 99.75
  L 297.42 99.75
  Q 298.11 99.75 297.85 99.11
  Q 296.04 94.64 292.86 91.10
  Q 292.51 90.71 292.99 90.49
  Q 295.10 89.53 295.42 87.42
  C 296.59 79.85 288.36 80.87 282.95 81.05
  Q 282.52 81.07 282.52 81.50
  L 282.46 99.16
  Q 282.46 99.61 282.91 99.61
  L 284.62 99.61
  Q 285.11 99.61 285.10 99.13
  L 285.04 92.35
  Q 285.03 91.77 285.61 91.70
  Z
  M 322.58 97.75
  A 0.33 0.33 0.0 0 1 322.25 97.42
  L 322.25 90.83
  A 0.33 0.33 0.0 0 1 322.58 90.50
  L 331.67 90.50
  A 0.33 0.33 0.0 0 0 332.00 90.17
  L 332.00 89.08
  A 0.33 0.33 0.0 0 0 331.67 88.75
  L 322.58 88.75
  A 0.33 0.33 0.0 0 1 322.25 88.42
  L 322.25 83.33
  A 0.33 0.33 0.0 0 1 322.58 83.00
  L 331.79 83.00
  A 0.33 0.33 0.0 0 0 332.10 82.78
  L 332.60 81.44
  A 0.33 0.33 0.0 0 0 332.29 81.00
  L 319.83 81.00
  A 0.33 0.33 0.0 0 0 319.50 81.33
  L 319.50 99.38
  A 0.33 0.33 0.0 0 0 319.84 99.71
  L 332.51 99.41
  A 0.33 0.33 0.0 0 0 332.82 98.98
  L 332.50 97.98
  A 0.33 0.33 0.0 0 0 332.19 97.75
  L 322.58 97.75
  Z"
/>
<path fill="#e51837" d="
  M 106.50 57.00
  L 106.50 49.75
  Q 106.50 49.25 107.00 49.25
  L 125.48 49.25
  A 0.50 0.50 0.0 0 1 125.98 49.74
  C 126.32 60.80 124.20 69.08 112.32 72.47
  Q 108.85 73.46 101.45 73.48
  Q 75.48 73.53 49.50 73.45
  C 40.46 73.43 29.15 68.03 28.77 57.70
  Q 28.04 38.19 28.94 23.99
  C 29.49 15.30 41.11 10.18 48.44 9.85
  Q 61.07 9.29 102.79 9.89
  C 117.59 10.10 127.79 16.39 125.89 33.40
  Q 125.82 34.00 125.22 34.00
  L 107.00 34.00
  Q 106.50 34.00 106.50 33.50
  L 106.50 26.97
  A 2.22 2.22 0.0 0 0 104.28 24.75
  L 49.50 24.76
  A 1.50 1.49 0.0 0 0 48.00 26.25
  L 48.00 57.00
  A 1.50 1.50 0.0 0 0 49.50 58.50
  L 105.00 58.50
  A 1.50 1.50 0.0 0 0 106.50 57.00
  Z"
/>
<path fill="#044e7d" d="
  M 151.51 25.78
  L 151.50 32.49
  A 1.55 1.54 0.2 0 0 153.05 34.04
  Q 180.04 33.96 207.24 33.89
  C 217.78 33.86 229.12 39.65 229.24 51.47
  C 229.27 54.62 229.58 58.33 228.67 61.12
  C 225.58 70.67 214.92 73.45 206.12 73.47
  Q 179.56 73.53 153.00 73.52
  C 141.69 73.51 130.74 66.31 132.06 53.69
  Q 132.10 53.25 132.54 53.25
  L 150.21 53.25
  Q 151.86 53.25 151.52 54.86
  Q 151.15 56.64 152.10 58.04
  A 1.11 1.10 72.3 0 0 153.00 58.51
  L 208.26 58.48
  Q 209.75 58.48 209.75 56.99
  L 209.75 50.27
  Q 209.75 49.18 208.66 49.19
  Q 181.63 49.43 155.28 49.09
  C 146.63 48.97 140.41 47.45 135.10 41.19
  C 130.64 35.95 130.64 23.21 135.26 17.63
  Q 141.72 9.85 151.56 9.81
  Q 179.78 9.68 208.00 9.78
  C 219.37 9.82 230.82 16.70 229.19 29.58
  Q 229.13 30.00 228.71 30.00
  L 210.86 30.00
  Q 210.15 30.00 210.07 29.29
  L 209.81 26.70
  A 2.17 2.16 86.8 0 0 207.65 24.76
  L 152.34 24.95
  A 0.83 0.83 0.0 0 0 151.51 25.78
  Z"
/>
<path fill="#044e7d" d="
  M 242.44 33.83
  Q 242.52 33.93 242.64 34.02
  Q 242.73 34.09 242.85 34.10
  Q 275.64 37.81 304.24 44.76
  Q 317.35 47.94 331.77 54.44
  Q 332.25 54.65 332.25 55.18
  L 332.25 72.97
  Q 332.25 73.50 331.72 73.50
  L 313.50 73.50
  Q 313.00 73.50 313.00 73.00
  L 313.00 49.87
  Q 313.00 49.25 312.37 49.25
  L 255.28 49.25
  Q 254.50 49.25 254.50 50.03
  L 254.50 72.99
  Q 254.50 73.49 254.01 73.49
  L 235.46 73.52
  Q 235.02 73.52 235.02 73.08
  Q 234.96 50.36 235.02 27.71
  C 235.04 19.46 240.30 13.73 247.68 11.15
  Q 251.43 9.84 261.36 9.79
  Q 286.05 9.66 310.75 9.64
  C 321.52 9.63 332.36 15.54 332.25 27.57
  Q 332.16 37.90 332.33 48.23
  Q 332.34 48.69 331.90 48.54
  C 303.68 38.46 272.63 35.02 242.57 33.58
  Q 242.23 33.56 242.44 33.83
  Z
  M 312.86 25.78
  A 0.93 0.93 0.0 0 0 311.93 24.85
  L 255.45 24.85
  A 0.93 0.93 0.0 0 0 254.52 25.78
  L 254.52 33.10
  A 0.93 0.93 0.0 0 0 255.45 34.03
  L 311.93 34.03
  A 0.93 0.93 0.0 0 0 312.86 33.10
  L 312.86 25.78
  Z"
/>
<rect fill="#ffffff" x="254.52" y="24.85" width="58.34" height="9.18" rx="0.93"/>
<path fill="#044e7d" d="
  M 186.81 121.27
  C 212.47 121.67 353.28 118.04 355.48 81.08
  Q 355.50 80.70 355.80 80.93
  Q 356.08 81.13 355.99 81.52
  Q 355.93 81.85 356.04 82.16
  C 365.02 106.77 302.17 118.62 288.30 120.81
  Q 255.62 125.98 228.31 126.87
  Q 156.00 129.23 84.49 118.32
  Q 46.60 112.54 11.07 100.96
  Q 10.93 100.92 10.87 100.80
  Q 10.73 100.52 11.03 100.59
  C 69.11 115.08 126.95 120.33 186.81 121.27
  Z"
/>
<path fill="#044e7d" d="
  M 36.71 97.88
  C 43.83 99.11 44.66 91.80 39.77 91.39
  Q 35.08 91.00 32.30 88.88
  A 1.41 1.38 -78.0 0 1 31.78 88.06
  C 29.95 79.79 38.50 80.17 43.74 81.24
  Q 44.32 81.36 44.43 81.94
  L 44.69 83.30
  A 0.44 0.44 0.0 0 1 44.06 83.78
  Q 40.42 81.94 36.73 82.90
  C 33.88 83.65 33.00 87.31 36.27 88.16
  C 40.00 89.14 45.47 89.34 45.79 94.47
  C 46.20 101.25 36.11 100.50 31.90 98.78
  A 0.66 0.65 11.6 0 1 31.50 98.18
  L 31.50 97.02
  Q 31.50 96.43 32.03 96.67
  Q 33.55 97.33 36.71 97.88
  Z"
/>
<path fill="#044e7d" d="
  M 139.83 90.06
  Q 142.21 90.44 144.56 89.96
  A 1.05 1.05 0.0 0 1 145.81 91.04
  L 145.45 97.71
  Q 145.43 98.07 145.11 98.23
  C 137.52 102.23 126.86 99.57 127.92 89.23
  C 128.81 80.49 137.65 79.11 144.41 82.08
  Q 144.85 82.27 144.96 82.74
  L 145.28 84.23
  A 0.45 0.45 0.0 0 1 144.58 84.69
  Q 138.81 80.59 133.33 83.82
  C 130.11 85.71 130.15 92.54 132.09 95.29
  C 134.41 98.59 138.97 98.58 142.48 97.44
  A 0.74 0.74 0.0 0 0 143.00 96.73
  L 143.00 92.76
  Q 143.00 92.01 142.26 92.01
  L 139.07 91.98
  A 0.81 0.81 0.0 0 1 138.30 90.91
  Q 138.66 89.87 139.83 90.06
  Z"
/>
<path fill="#044e7d" d="
  M 251.4651 100.1988
  A 9.86 9.55 90.9 0 1 242.0712 90.1900
  A 9.86 9.55 90.9 0 1 251.7749 80.4812
  A 9.86 9.55 90.9 0 1 261.1688 90.4900
  A 9.86 9.55 90.9 0 1 251.4651 100.1988
  Z
  M 251.5826 98.1900
  A 7.85 6.64 90.2 0 0 258.2500 90.3632
  A 7.85 6.64 90.2 0 0 251.6374 82.4900
  A 7.85 6.64 90.2 0 0 244.9700 90.3168
  A 7.85 6.64 90.2 0 0 251.5826 98.1900
  Z"
/>
<rect fill="#044e7d" x="66.49" y="80.99" width="2.76" height="18.74" rx="0.55"/>
<path fill="#044e7d" d="
  M 103.75 95.46
  L 103.75 81.62
  Q 103.75 81.00 104.37 81.00
  L 106.00 81.00
  Q 106.50 81.00 106.50 81.50
  L 106.50 99.26
  Q 106.50 99.77 106.00 99.71
  L 103.10 99.41
  Q 102.51 99.35 102.22 98.84
  L 94.22 84.62
  Q 93.75 83.77 93.75 84.74
  L 93.75 98.94
  Q 93.75 99.46 93.24 99.49
  L 91.52 99.59
  Q 91.00 99.62 91.00 99.09
  L 91.00 81.50
  Q 91.00 81.00 91.50 81.00
  L 94.26 81.00
  A 0.91 0.91 0.0 0 1 95.05 81.46
  L 103.13 95.62
  A 0.33 0.33 0.0 0 0 103.75 95.46
  Z"
/>
<path fill="#044e7d" d="
  M 167.98 99.59
  Q 167.58 99.40 167.75 99.01
  L 174.78 82.03
  A 2.15 2.15 0.0 0 1 178.75 82.02
  L 185.79 98.99
  Q 186.00 99.49 185.49 99.67
  C 182.72 100.68 182.25 97.06 181.64 95.29
  A 0.78 0.78 0.0 0 0 180.90 94.76
  L 172.77 94.75
  Q 172.19 94.75 171.98 95.28
  C 171.30 96.98 170.73 100.86 167.98 99.59
  Z
  M 173.27 92.32
  A 0.35 0.35 0.0 0 0 173.59 92.80
  L 180.02 92.79
  A 0.35 0.35 0.0 0 0 180.34 92.31
  L 177.12 84.05
  A 0.35 0.35 0.0 0 0 176.46 84.05
  L 173.27 92.32
  Z"
/>
<path fill="#044e7d" d="
  M 210.44 92.43
  L 210.52 98.74
  Q 210.53 99.29 209.99 99.39
  L 208.41 99.70
  A 0.55 0.55 0.0 0 1 207.75 99.16
  L 207.75 81.52
  Q 207.75 81.09 208.17 81.07
  C 213.03 80.83 221.33 80.15 220.94 86.50
  C 220.57 92.42 215.47 92.01 210.85 92.01
  Q 210.43 92.01 210.44 92.43
  Z
  M 210.50 83.29
  L 210.50 89.75
  A 0.27 0.27 0.0 0 0 210.77 90.02
  L 214.69 90.02
  A 3.33 3.30 -0.0 0 0 218.02 86.72
  L 218.02 86.32
  A 3.33 3.30 0.0 0 0 214.69 83.02
  L 210.77 83.02
  A 0.27 0.27 0.0 0 0 210.50 83.29
  Z"
/>
<path fill="#044e7d" d="
  M 295.09 99.25
  C 293.03 94.64 291.64 90.96 285.61 91.70
  Q 285.03 91.77 285.04 92.35
  L 285.10 99.13
  Q 285.11 99.61 284.62 99.61
  L 282.91 99.61
  Q 282.46 99.61 282.46 99.16
  L 282.52 81.50
  Q 282.52 81.07 282.95 81.05
  C 288.36 80.87 296.59 79.85 295.42 87.42
  Q 295.10 89.53 292.99 90.49
  Q 292.51 90.71 292.86 91.10
  Q 296.04 94.64 297.85 99.11
  Q 298.11 99.75 297.42 99.75
  L 295.86 99.75
  Q 295.31 99.75 295.09 99.25
  Z
  M 285.09 83.47
  L 285.07 89.23
  A 0.50 0.50 0.0 0 0 285.57 89.73
  L 289.13 89.74
  A 3.60 3.22 0.2 0 0 292.74 86.53
  L 292.74 86.21
  A 3.60 3.22 0.2 0 0 289.15 82.98
  L 285.59 82.97
  A 0.50 0.50 0.0 0 0 285.09 83.47
  Z"
/>
<path fill="#044e7d" d="
  M 322.58 97.75
  L 332.19 97.75
  A 0.33 0.33 0.0 0 1 332.50 97.98
  L 332.82 98.98
  A 0.33 0.33 0.0 0 1 332.51 99.41
  L 319.84 99.71
  A 0.33 0.33 0.0 0 1 319.50 99.38
  L 319.50 81.33
  A 0.33 0.33 0.0 0 1 319.83 81.00
  L 332.29 81.00
  A 0.33 0.33 0.0 0 1 332.60 81.44
  L 332.10 82.78
  A 0.33 0.33 0.0 0 1 331.79 83.00
  L 322.58 83.00
  A 0.33 0.33 0.0 0 0 322.25 83.33
  L 322.25 88.42
  A 0.33 0.33 0.0 0 0 322.58 88.75
  L 331.67 88.75
  A 0.33 0.33 0.0 0 1 332.00 89.08
  L 332.00 90.17
  A 0.33 0.33 0.0 0 1 331.67 90.50
  L 322.58 90.50
  A 0.33 0.33 0.0 0 0 322.25 90.83
  L 322.25 97.42
  A 0.33 0.33 0.0 0 0 322.58 97.75
  Z"
/>
<ellipse fill="#ffffff" cx="0.00" cy="0.00" transform="translate(251.61,90.34) rotate(90.2)" rx="7.85" ry="6.64"/>
<path fill="#ffffff" d="
  M 210.50 83.29
  A 0.27 0.27 0.0 0 1 210.77 83.02
  L 214.69 83.02
  A 3.33 3.30 0.0 0 1 218.02 86.32
  L 218.02 86.72
  A 3.33 3.30 0.0 0 1 214.69 90.02
  L 210.77 90.02
  A 0.27 0.27 0.0 0 1 210.50 89.75
  L 210.50 83.29
  Z"
/>
<path fill="#ffffff" d="
  M 285.09 83.47
  A 0.50 0.50 0.0 0 1 285.59 82.97
  L 289.15 82.98
  A 3.60 3.22 0.2 0 1 292.74 86.21
  L 292.74 86.53
  A 3.60 3.22 0.2 0 1 289.13 89.74
  L 285.57 89.73
  A 0.50 0.50 0.0 0 1 285.07 89.23
  L 285.09 83.47
  Z"
/>
<path fill="#ffffff" d="
  M 173.27 92.32
  L 176.46 84.05
  A 0.35 0.35 0.0 0 1 177.12 84.05
  L 180.34 92.31
  A 0.35 0.35 0.0 0 1 180.02 92.79
  L 173.59 92.80
  A 0.35 0.35 0.0 0 1 173.27 92.32
  Z"
/>
</svg>
